<?xml version="1.0" encoding="UTF-8" standalone="no"?>
<!DOCTYPE svg PUBLIC "-//W3C//DTD SVG 1.1//EN"
 "http://www.w3.org/Graphics/SVG/1.1/DTD/svg11.dtd">
<!-- Generated by graphviz version 9.0.0 (20230911.1827)
 -->
<!-- Title: ai&#45;screen&#45;it&#45;С4&#45;container Pages: 1 -->
<svg width="984pt" height="1438pt"
 viewBox="0.00 0.00 984.00 1438.45" xmlns="http://www.w3.org/2000/svg" xmlns:xlink="http://www.w3.org/1999/xlink">
<g id="graph0" class="graph" transform="scale(1 1) rotate(0) translate(144 1294.45)">
<title>ai&#45;screen&#45;it&#45;С4&#45;container</title>
<polygon fill="white" stroke="none" points="-144,144 -144,-1294.45 840,-1294.45 840,144 -144,144"/>
<text text-anchor="middle" x="348" y="-5.5" font-family="Sans-Serif" font-size="15.00" fill="#2d3436">ai&#45;screen&#45;it&#45;С4&#45;container</text>
<g id="clust1" class="cluster">
<title>cluster_Decision Support System</title>
<polygon fill="white" stroke="#aeb6be" stroke-dasharray="5,2" points="8,-31.75 8,-774.8 688,-774.8 688,-31.75 8,-31.75"/>
<text text-anchor="middle" x="83.5" y="-759.4" font-family="Sans-Serif" font-size="12.00" fill="#2d3436">Decision Support System</text>
</g>
<!-- e5119feea74243ffb8011d0d3f3de923 -->
<g id="node1" class="node">
<title>e5119feea74243ffb8011d0d3f3de923</title>
<path fill="#104e8b" stroke="black" d="M298.6,-947.5C298.6,-947.5 135.4,-947.5 135.4,-947.5 129.4,-947.5 123.4,-941.5 123.4,-935.5 123.4,-935.5 123.4,-844.3 123.4,-844.3 123.4,-838.3 129.4,-832.3 135.4,-832.3 135.4,-832.3 298.6,-832.3 298.6,-832.3 304.6,-832.3 310.6,-838.3 310.6,-844.3 310.6,-844.3 310.6,-935.5 310.6,-935.5 310.6,-941.5 304.6,-947.5 298.6,-947.5"/>
<text text-anchor="start" x="202" y="-911.5" font-family="Sans-Serif" font-weight="bold" font-size="12.00" fill="white">Врач</text>
<text text-anchor="start" x="200.12" y="-902.35" font-family="Sans-Serif" font-size="9.00" fill="white">[Person]</text>
<text text-anchor="start" x="123.62" y="-879.4" font-family="Sans-Serif" font-size="10.00" fill="white">Ведет переписку с пациентом. Создает</text>
<text text-anchor="start" x="119.12" y="-869.4" font-family="Sans-Serif" font-size="10.00" fill="white">карточку для пациента, а затем отвечает</text>
<text text-anchor="start" x="139.75" y="-859.4" font-family="Sans-Serif" font-size="10.00" fill="white">ему, учитывая рез&#45;т ML моделей</text>
</g>
<!-- 08b2f9e360f84c2d9560fbc43bebf390 -->
<g id="node3" class="node">
<title>08b2f9e360f84c2d9560fbc43bebf390</title>
<polygon fill="#1874cd" stroke="black" points="441.6,-738.05 254.4,-738.05 254.4,-622.85 441.6,-622.85 441.6,-738.05"/>
<text text-anchor="start" x="322.5" y="-697.05" font-family="Sans-Serif" font-weight="bold" font-size="12.00" fill="white">Redmine</text>
<text text-anchor="start" x="304.5" y="-687.9" font-family="Sans-Serif" font-size="9.00" fill="white">[Container: Redmine]</text>
<text text-anchor="start" x="246.38" y="-664.95" font-family="Sans-Serif" font-size="10.00" fill="white">ПО для коммуникации врачей и пациентов</text>
</g>
<!-- e5119feea74243ffb8011d0d3f3de923&#45;&gt;08b2f9e360f84c2d9560fbc43bebf390 -->
<g id="edge2" class="edge">
<title>e5119feea74243ffb8011d0d3f3de923&#45;&gt;08b2f9e360f84c2d9560fbc43bebf390</title>
<path fill="none" stroke="#999999" stroke-dasharray="5,2" d="M251.46,-832.01C261.24,-816.03 271.96,-798.69 282,-782.8 289.14,-771.5 296.81,-759.55 304.31,-747.97"/>
<polygon fill="#999999" stroke="#999999" points="307.22,-749.92 309.72,-739.63 301.34,-746.11 307.22,-749.92"/>
<text text-anchor="start" x="282" y="-795.8" font-family="Sans-Serif" font-size="10.00" fill="#2d3436">Создает карточку для</text>
<text text-anchor="start" x="312.75" y="-784.55" font-family="Sans-Serif" font-size="10.00" fill="#2d3436">пациента</text>
</g>
<!-- d8bfd79133824bfa8365b6b778e12379 -->
<g id="node2" class="node">
<title>d8bfd79133824bfa8365b6b778e12379</title>
<path fill="#104e8b" stroke="black" d="M528.6,-947.5C528.6,-947.5 365.4,-947.5 365.4,-947.5 359.4,-947.5 353.4,-941.5 353.4,-935.5 353.4,-935.5 353.4,-844.3 353.4,-844.3 353.4,-838.3 359.4,-832.3 365.4,-832.3 365.4,-832.3 528.6,-832.3 528.6,-832.3 534.6,-832.3 540.6,-838.3 540.6,-844.3 540.6,-844.3 540.6,-935.5 540.6,-935.5 540.6,-941.5 534.6,-947.5 528.6,-947.5"/>
<text text-anchor="start" x="421.5" y="-906.5" font-family="Sans-Serif" font-weight="bold" font-size="12.00" fill="white">Пациент</text>
<text text-anchor="start" x="430.12" y="-897.35" font-family="Sans-Serif" font-size="9.00" fill="white">[Person]</text>
<text text-anchor="start" x="340.12" y="-874.4" font-family="Sans-Serif" font-size="10.00" fill="white">Общается с врачом. Отправляет МРТ&#45;снимок</text>
<text text-anchor="start" x="361.88" y="-864.4" font-family="Sans-Serif" font-size="10.00" fill="white">в Redmine. Получает ответ от врача</text>
</g>
<!-- d8bfd79133824bfa8365b6b778e12379&#45;&gt;08b2f9e360f84c2d9560fbc43bebf390 -->
<g id="edge1" class="edge">
<title>d8bfd79133824bfa8365b6b778e12379&#45;&gt;08b2f9e360f84c2d9560fbc43bebf390</title>
<path fill="none" stroke="#999999" stroke-dasharray="5,2" d="M419.82,-831.94C407.48,-806.09 392.81,-775.35 379.95,-748.41"/>
<polygon fill="#999999" stroke="#999999" points="383.24,-747.17 375.77,-739.65 376.92,-750.18 383.24,-747.17"/>
<text text-anchor="start" x="406" y="-790.18" font-family="Sans-Serif" font-size="10.00" fill="#2d3436">Загружает МРТ&#45;снимок</text>
</g>
<!-- 3f8b3dcfb0064dc7bfdbbe6d2af5ca23 -->
<g id="node4" class="node">
<title>3f8b3dcfb0064dc7bfdbbe6d2af5ca23</title>
<polygon fill="#1874cd" stroke="black" points="414.6,-546.35 227.4,-546.35 227.4,-431.15 414.6,-431.15 414.6,-546.35"/>
<text text-anchor="start" x="304.5" y="-505.35" font-family="Sans-Serif" font-weight="bold" font-size="12.00" fill="white">Kafka</text>
<text text-anchor="start" x="267.75" y="-496.2" font-family="Sans-Serif" font-size="9.00" fill="white">[Container: Apache Kafka]</text>
<text text-anchor="start" x="216.75" y="-473.25" font-family="Sans-Serif" font-size="10.00" fill="white">Инструмент для передачи потоков данных в</text>
<text text-anchor="start" x="277.88" y="-463.25" font-family="Sans-Serif" font-size="10.00" fill="white">реальном времени</text>
</g>
<!-- 08b2f9e360f84c2d9560fbc43bebf390&#45;&gt;3f8b3dcfb0064dc7bfdbbe6d2af5ca23 -->
<g id="edge5" class="edge">
<title>08b2f9e360f84c2d9560fbc43bebf390&#45;&gt;3f8b3dcfb0064dc7bfdbbe6d2af5ca23</title>
<path fill="none" stroke="#999999" stroke-dasharray="5,2" d="M257.64,-622.6C250.12,-614.51 243.56,-605.59 238.75,-595.85 232.05,-582.28 234.04,-568.76 240.74,-556.15"/>
<polygon fill="#999999" stroke="#999999" points="243.53,-558.3 245.92,-547.98 237.61,-554.56 243.53,-558.3"/>
<text text-anchor="start" x="238" y="-586.35" font-family="Sans-Serif" font-size="10.00" fill="#2d3436">Передает снимок на</text>
<text text-anchor="start" x="262" y="-575.1" font-family="Sans-Serif" font-size="10.00" fill="#2d3436">обработку</text>
</g>
<!-- 3f8b3dcfb0064dc7bfdbbe6d2af5ca23&#45;&gt;08b2f9e360f84c2d9560fbc43bebf390 -->
<g id="edge6" class="edge">
<title>3f8b3dcfb0064dc7bfdbbe6d2af5ca23&#45;&gt;08b2f9e360f84c2d9560fbc43bebf390</title>
<path fill="none" stroke="#999999" stroke-dasharray="5,2" d="M335.12,-546.65C336.98,-555.54 338.69,-564.67 340,-573.35 341.83,-585.52 343.25,-598.54 344.35,-611.14"/>
<polygon fill="#999999" stroke="#999999" points="340.86,-611.37 345.15,-621.05 347.83,-610.8 340.86,-611.37"/>
<text text-anchor="start" x="342" y="-580.73" font-family="Sans-Serif" font-size="10.00" fill="#2d3436">Возвращает ответ моделей</text>
</g>
<!-- d3e0170599ca49c28abfcce5cf7c0acb -->
<g id="node5" class="node">
<title>d3e0170599ca49c28abfcce5cf7c0acb</title>
<polygon fill="#1874cd" stroke="black" points="441.6,-354.65 254.4,-354.65 254.4,-239.45 441.6,-239.45 441.6,-354.65"/>
<text text-anchor="start" x="331.12" y="-313.65" font-family="Sans-Serif" font-weight="bold" font-size="12.00" fill="white">Spark</text>
<text text-anchor="start" x="294.38" y="-304.5" font-family="Sans-Serif" font-size="9.00" fill="white">[Container: Apache Spark]</text>
<text text-anchor="start" x="243.38" y="-281.55" font-family="Sans-Serif" font-size="10.00" fill="white">Фреймворк для обработки больших объемов</text>
<text text-anchor="start" x="330.75" y="-271.55" font-family="Sans-Serif" font-size="10.00" fill="white">данных</text>
</g>
<!-- 3f8b3dcfb0064dc7bfdbbe6d2af5ca23&#45;&gt;d3e0170599ca49c28abfcce5cf7c0acb -->
<g id="edge7" class="edge">
<title>3f8b3dcfb0064dc7bfdbbe6d2af5ca23&#45;&gt;d3e0170599ca49c28abfcce5cf7c0acb</title>
<path fill="none" stroke="#999999" stroke-dasharray="5,2" d="M258.67,-430.91C248.85,-415.46 244.13,-398.36 251.75,-381.65 254.61,-375.37 258.2,-369.38 262.31,-363.71"/>
<polygon fill="#999999" stroke="#999999" points="264.76,-366.25 268.2,-356.24 259.26,-361.92 264.76,-366.25"/>
<text text-anchor="start" x="251" y="-394.65" font-family="Sans-Serif" font-size="10.00" fill="#2d3436">Передает снимок на</text>
<text text-anchor="start" x="275" y="-383.4" font-family="Sans-Serif" font-size="10.00" fill="#2d3436">обработку</text>
</g>
<!-- dd279b89a8244be9a12d2de3523132f6 -->
<g id="node6" class="node">
<title>dd279b89a8244be9a12d2de3523132f6</title>
<polygon fill="#1874cd" stroke="black" points="211.6,-354.65 24.4,-354.65 24.4,-239.45 211.6,-239.45 211.6,-354.65"/>
<text text-anchor="start" x="86.12" y="-313.65" font-family="Sans-Serif" font-weight="bold" font-size="12.00" fill="white">Python API</text>
<text text-anchor="start" x="77.5" y="-304.5" font-family="Sans-Serif" font-size="9.00" fill="white">[Container: FastAPI]</text>
<text text-anchor="start" x="22.75" y="-281.55" font-family="Sans-Serif" font-size="10.00" fill="white">API для взаимодействия с Email System</text>
</g>
<!-- 3f8b3dcfb0064dc7bfdbbe6d2af5ca23&#45;&gt;dd279b89a8244be9a12d2de3523132f6 -->
<g id="edge10" class="edge">
<title>3f8b3dcfb0064dc7bfdbbe6d2af5ca23&#45;&gt;dd279b89a8244be9a12d2de3523132f6</title>
<path fill="none" stroke="#999999" stroke-dasharray="5,2" d="M226.96,-455.22C201.19,-442.59 175.12,-425.82 156,-404.15 146.25,-393.1 138.95,-379.37 133.5,-365.49"/>
<polygon fill="#999999" stroke="#999999" points="136.88,-364.54 130.2,-356.32 130.29,-366.91 136.88,-364.54"/>
<text text-anchor="start" x="156" y="-394.65" font-family="Sans-Serif" font-size="10.00" fill="#2d3436">Триггерит запуск</text>
<text text-anchor="start" x="173.62" y="-383.4" font-family="Sans-Serif" font-size="10.00" fill="#2d3436">рассылки</text>
</g>
<!-- 447a2510a5be4e10a8eaca8ffa3b8013 -->
<g id="node7" class="node">
<title>447a2510a5be4e10a8eaca8ffa3b8013</title>
<polygon fill="#1874cd" stroke="black" points="671.6,-354.65 484.4,-354.65 484.4,-239.45 671.6,-239.45 671.6,-354.65"/>
<text text-anchor="start" x="555.12" y="-313.65" font-family="Sans-Serif" font-weight="bold" font-size="12.00" fill="white">Hadoop</text>
<text text-anchor="start" x="536.75" y="-304.5" font-family="Sans-Serif" font-size="9.00" fill="white">[Container: Hadoop]</text>
<text text-anchor="start" x="476" y="-281.55" font-family="Sans-Serif" font-size="10.00" fill="white">Фреймворк для хранения больших объемов</text>
<text text-anchor="start" x="560.75" y="-271.55" font-family="Sans-Serif" font-size="10.00" fill="white">данных</text>
</g>
<!-- 3f8b3dcfb0064dc7bfdbbe6d2af5ca23&#45;&gt;447a2510a5be4e10a8eaca8ffa3b8013 -->
<g id="edge9" class="edge">
<title>3f8b3dcfb0064dc7bfdbbe6d2af5ca23&#45;&gt;447a2510a5be4e10a8eaca8ffa3b8013</title>
<path fill="none" stroke="#999999" stroke-dasharray="5,2" d="M415.06,-452.15C442.38,-439.35 471.24,-423.27 495,-404.15 509.26,-392.68 522.56,-378.31 534.15,-363.88"/>
<polygon fill="#999999" stroke="#999999" points="536.82,-366.14 540.21,-356.11 531.3,-361.84 536.82,-366.14"/>
<text text-anchor="start" x="516" y="-394.65" font-family="Sans-Serif" font-size="10.00" fill="#2d3436">Передает снимок в</text>
<text text-anchor="start" x="519.38" y="-383.4" font-family="Sans-Serif" font-size="10.00" fill="#2d3436">хранилище HDFS</text>
</g>
<!-- d3e0170599ca49c28abfcce5cf7c0acb&#45;&gt;3f8b3dcfb0064dc7bfdbbe6d2af5ca23 -->
<g id="edge8" class="edge">
<title>d3e0170599ca49c28abfcce5cf7c0acb&#45;&gt;3f8b3dcfb0064dc7bfdbbe6d2af5ca23</title>
<path fill="none" stroke="#999999" stroke-dasharray="5,2" d="M355.47,-355.09C356.27,-371.07 355.92,-388.37 353,-404.15 352.03,-409.41 350.74,-414.77 349.23,-420.11"/>
<polygon fill="#999999" stroke="#999999" points="345.93,-418.95 346.32,-429.54 352.62,-421.02 345.93,-418.95"/>
<text text-anchor="start" x="355" y="-389.02" font-family="Sans-Serif" font-size="10.00" fill="#2d3436">Возвращает ответ моделей</text>
</g>
<!-- 82c2fca4ff2f4c429b64a84802df71f2 -->
<g id="node8" class="node">
<title>82c2fca4ff2f4c429b64a84802df71f2</title>
<path fill="#1874cd" stroke="black" d="M535.6,-152.48C535.6,-158.26 493.65,-162.95 442,-162.95 390.35,-162.95 348.4,-158.26 348.4,-152.48 348.4,-152.48 348.4,-58.22 348.4,-58.22 348.4,-52.44 390.35,-47.75 442,-47.75 493.65,-47.75 535.6,-52.44 535.6,-58.22 535.6,-58.22 535.6,-152.48 535.6,-152.48"/>
<path fill="none" stroke="black" d="M535.6,-152.48C535.6,-146.7 493.65,-142 442,-142 390.35,-142 348.4,-146.7 348.4,-152.48"/>
<text text-anchor="start" x="394" y="-101.97" font-family="Sans-Serif" font-weight="bold" font-size="12.00" fill="white">Data WareHouse</text>
<text text-anchor="start" x="408.62" y="-92.82" font-family="Sans-Serif" font-size="9.00" fill="white">[Database: SQL]</text>
<text text-anchor="start" x="348.62" y="-69.88" font-family="Sans-Serif" font-size="10.00" fill="white">Хранение данных для аналитиков, Data</text>
<text text-anchor="start" x="429.62" y="-59.88" font-family="Sans-Serif" font-size="10.00" fill="white">Marts</text>
</g>
<!-- d3e0170599ca49c28abfcce5cf7c0acb&#45;&gt;82c2fca4ff2f4c429b64a84802df71f2 -->
<g id="edge12" class="edge">
<title>d3e0170599ca49c28abfcce5cf7c0acb&#45;&gt;82c2fca4ff2f4c429b64a84802df71f2</title>
<path fill="none" stroke="#999999" stroke-dasharray="5,2" d="M369.09,-239.13C375.6,-222.99 383.13,-205.57 391,-189.95 393.84,-184.31 396.93,-178.54 400.14,-172.81"/>
<polygon fill="#999999" stroke="#999999" points="402.95,-174.95 404.87,-164.53 396.87,-171.47 402.95,-174.95"/>
<text text-anchor="start" x="391" y="-202.95" font-family="Sans-Serif" font-size="10.00" fill="#2d3436">Сохраняет результаты</text>
<text text-anchor="start" x="424.75" y="-191.7" font-family="Sans-Serif" font-size="10.00" fill="#2d3436">моделей</text>
</g>
<!-- 67b2c7e7835943cea92171951668adf7 -->
<g id="node9" class="node">
<title>67b2c7e7835943cea92171951668adf7</title>
<polygon fill="#999999" stroke="black" points="310.6,-1150.45 123.4,-1150.45 123.4,-1035.25 310.6,-1035.25 310.6,-1150.45"/>
<text text-anchor="start" x="178.38" y="-1109.45" font-family="Sans-Serif" font-weight="bold" font-size="12.00" fill="white">Email System</text>
<text text-anchor="start" x="181.75" y="-1100.3" font-family="Sans-Serif" font-size="9.00" fill="white">[External System]</text>
<text text-anchor="start" x="122.88" y="-1077.35" font-family="Sans-Serif" font-size="10.00" fill="white">Система уведомлений пользователей о</text>
<text text-anchor="start" x="173.12" y="-1067.35" font-family="Sans-Serif" font-size="10.00" fill="white">новых сообщениях</text>
</g>
<!-- dd279b89a8244be9a12d2de3523132f6&#45;&gt;67b2c7e7835943cea92171951668adf7 -->
<g id="edge11" class="edge">
<title>dd279b89a8244be9a12d2de3523132f6&#45;&gt;67b2c7e7835943cea92171951668adf7</title>
<path fill="none" stroke="#999999" stroke-dasharray="5,2" d="M89.93,-355.11C74.32,-392.03 58,-441.64 58,-487.75 58,-890.9 58,-890.9 58,-890.9 58,-944.25 92.9,-991.72 129.99,-1027.11"/>
<polygon fill="#999999" stroke="#999999" points="127.61,-1029.67 137.32,-1033.9 132.36,-1024.53 127.61,-1029.67"/>
<text text-anchor="start" x="58" y="-676.58" font-family="Sans-Serif" font-size="10.00" fill="#2d3436">Запускает рассылку</text>
</g>
<!-- 447a2510a5be4e10a8eaca8ffa3b8013&#45;&gt;82c2fca4ff2f4c429b64a84802df71f2 -->
<g id="edge13" class="edge">
<title>447a2510a5be4e10a8eaca8ffa3b8013&#45;&gt;82c2fca4ff2f4c429b64a84802df71f2</title>
<path fill="none" stroke="#999999" stroke-dasharray="5,2" d="M539.43,-239.02C528.44,-223.04 516.37,-205.73 505,-189.95 500.89,-184.24 496.58,-178.35 492.22,-172.45"/>
<polygon fill="#999999" stroke="#999999" points="495.04,-170.38 486.27,-164.43 489.42,-174.55 495.04,-170.38"/>
<text text-anchor="start" x="519" y="-202.95" font-family="Sans-Serif" font-size="10.00" fill="#2d3436">Передает данные для</text>
<text text-anchor="start" x="553.88" y="-191.7" font-family="Sans-Serif" font-size="10.00" fill="#2d3436">витрин</text>
</g>
<!-- 67b2c7e7835943cea92171951668adf7&#45;&gt;e5119feea74243ffb8011d0d3f3de923 -->
<g id="edge4" class="edge">
<title>67b2c7e7835943cea92171951668adf7&#45;&gt;e5119feea74243ffb8011d0d3f3de923</title>
<path fill="none" stroke="#999999" stroke-dasharray="5,2" d="M217,-1034.8C217,-1011.26 217,-983.79 217,-959.19"/>
<polygon fill="#999999" stroke="#999999" points="220.5,-959.25 217,-949.25 213.5,-959.25 220.5,-959.25"/>
<text text-anchor="start" x="217" y="-998.75" font-family="Sans-Serif" font-size="10.00" fill="#2d3436">Уведомляет пользователя</text>
<text text-anchor="start" x="229.75" y="-987.5" font-family="Sans-Serif" font-size="10.00" fill="#2d3436">о новом сообщении в</text>
<text text-anchor="start" x="255.25" y="-976.25" font-family="Sans-Serif" font-size="10.00" fill="#2d3436">переписке</text>
</g>
<!-- 67b2c7e7835943cea92171951668adf7&#45;&gt;d8bfd79133824bfa8365b6b778e12379 -->
<g id="edge3" class="edge">
<title>67b2c7e7835943cea92171951668adf7&#45;&gt;d8bfd79133824bfa8365b6b778e12379</title>
<path fill="none" stroke="#999999" stroke-dasharray="5,2" d="M311.05,-1039.34C325.35,-1029.76 339.49,-1019.28 352,-1008.25 369.32,-992.98 385.97,-974.33 400.36,-956.43"/>
<polygon fill="#999999" stroke="#999999" points="402.85,-958.92 406.3,-948.9 397.35,-954.59 402.85,-958.92"/>
<text text-anchor="start" x="383" y="-998.75" font-family="Sans-Serif" font-size="10.00" fill="#2d3436">Уведомляет пользователя</text>
<text text-anchor="start" x="395.75" y="-987.5" font-family="Sans-Serif" font-size="10.00" fill="#2d3436">о новом сообщении в</text>
<text text-anchor="start" x="421.25" y="-976.25" font-family="Sans-Serif" font-size="10.00" fill="#2d3436">переписке</text>
</g>
</g>
</svg>
