<?xml version="1.0" encoding="UTF-8" standalone="no"?>
<!DOCTYPE svg PUBLIC "-//W3C//DTD SVG 1.1//EN"
 "http://www.w3.org/Graphics/SVG/1.1/DTD/svg11.dtd">
<!-- Generated by graphviz version 9.0.0 (20230911.1827)
 -->
<!-- Title: ai&#45;screen&#45;it&#45;С4&#45;context Pages: 1 -->
<svg width="735pt" height="1013pt"
 viewBox="0.00 0.00 735.10 1013.30" xmlns="http://www.w3.org/2000/svg" xmlns:xlink="http://www.w3.org/1999/xlink">
<g id="graph0" class="graph" transform="scale(1 1) rotate(0) translate(144 869.3)">
<title>ai&#45;screen&#45;it&#45;С4&#45;context</title>
<polygon fill="white" stroke="none" points="-144,144 -144,-869.3 591.1,-869.3 591.1,144 -144,144"/>
<text text-anchor="middle" x="223.55" y="-5.5" font-family="Sans-Serif" font-size="15.00" fill="#2d3436">ai&#45;screen&#45;it&#45;С4&#45;context</text>
<!-- fa1bfa8607a74b38b29b8c6c40cee049 -->
<g id="node1" class="node">
<title>fa1bfa8607a74b38b29b8c6c40cee049</title>
<path fill="#104e8b" stroke="black" d="M309.2,-725.3C309.2,-725.3 146,-725.3 146,-725.3 140,-725.3 134,-719.3 134,-713.3 134,-713.3 134,-622.1 134,-622.1 134,-616.1 140,-610.1 146,-610.1 146,-610.1 309.2,-610.1 309.2,-610.1 315.2,-610.1 321.2,-616.1 321.2,-622.1 321.2,-622.1 321.2,-713.3 321.2,-713.3 321.2,-719.3 315.2,-725.3 309.2,-725.3"/>
<text text-anchor="start" x="212.6" y="-689.3" font-family="Sans-Serif" font-weight="bold" font-size="12.00" fill="white">Врач</text>
<text text-anchor="start" x="210.73" y="-680.15" font-family="Sans-Serif" font-size="9.00" fill="white">[Person]</text>
<text text-anchor="start" x="134.23" y="-657.2" font-family="Sans-Serif" font-size="10.00" fill="white">Ведет переписку с пациентом. Создает</text>
<text text-anchor="start" x="129.73" y="-647.2" font-family="Sans-Serif" font-size="10.00" fill="white">карточку для пациента, а затем отвечает</text>
<text text-anchor="start" x="150.35" y="-637.2" font-family="Sans-Serif" font-size="10.00" fill="white">ему, учитывая рез&#45;т ML моделей</text>
</g>
<!-- 6509054b8a454dcba169a1a302cb5356 -->
<g id="node3" class="node">
<title>6509054b8a454dcba169a1a302cb5356</title>
<polygon fill="#104e8b" stroke="black" points="231.2,-522.35 44,-522.35 44,-407.15 231.2,-407.15 231.2,-522.35"/>
<text text-anchor="start" x="64.85" y="-481.35" font-family="Sans-Serif" font-weight="bold" font-size="12.00" fill="white">Decision Support System</text>
<text text-anchor="start" x="99.35" y="-472.2" font-family="Sans-Serif" font-size="9.00" fill="white">[System: Redmine]</text>
<text text-anchor="start" x="53.23" y="-449.25" font-family="Sans-Serif" font-size="10.00" fill="white">Инструмент для комм&#45;ции врачей и</text>
<text text-anchor="start" x="113.23" y="-439.25" font-family="Sans-Serif" font-size="10.00" fill="white">пациентов</text>
</g>
<!-- fa1bfa8607a74b38b29b8c6c40cee049&#45;&gt;6509054b8a454dcba169a1a302cb5356 -->
<g id="edge2" class="edge">
<title>fa1bfa8607a74b38b29b8c6c40cee049&#45;&gt;6509054b8a454dcba169a1a302cb5356</title>
<path fill="none" stroke="#999999" stroke-dasharray="5,2" d="M190.04,-609.67C185.01,-600.95 180.19,-591.91 176.1,-583.1 168.81,-567.39 162.28,-549.9 156.77,-533.33"/>
<polygon fill="#999999" stroke="#999999" points="160.17,-532.47 153.76,-524.04 153.51,-534.63 160.17,-532.47"/>
<text text-anchor="start" x="178.85" y="-573.6" font-family="Sans-Serif" font-size="10.00" fill="#2d3436">Создает карточку для</text>
<text text-anchor="start" x="193.1" y="-562.35" font-family="Sans-Serif" font-size="10.00" fill="#2d3436">пациента, ведет</text>
<text text-anchor="start" x="176.6" y="-551.1" font-family="Sans-Serif" font-size="10.00" fill="#2d3436">переписку с пациентом</text>
</g>
<!-- ad79b56daef04eca97409a32d75691e4 -->
<g id="node2" class="node">
<title>ad79b56daef04eca97409a32d75691e4</title>
<path fill="#104e8b" stroke="black" d="M175.2,-138.95C175.2,-138.95 12,-138.95 12,-138.95 6,-138.95 0,-132.95 0,-126.95 0,-126.95 0,-35.75 0,-35.75 0,-29.75 6,-23.75 12,-23.75 12,-23.75 175.2,-23.75 175.2,-23.75 181.2,-23.75 187.2,-29.75 187.2,-35.75 187.2,-35.75 187.2,-126.95 187.2,-126.95 187.2,-132.95 181.2,-138.95 175.2,-138.95"/>
<text text-anchor="start" x="68.1" y="-97.95" font-family="Sans-Serif" font-weight="bold" font-size="12.00" fill="white">Пациент</text>
<text text-anchor="start" x="76.73" y="-88.8" font-family="Sans-Serif" font-size="9.00" fill="white">[Person]</text>
<text text-anchor="start" x="-13.27" y="-65.85" font-family="Sans-Serif" font-size="10.00" fill="white">Общается с врачом. Отправляет МРТ&#45;снимок</text>
<text text-anchor="start" x="8.48" y="-55.85" font-family="Sans-Serif" font-size="10.00" fill="white">в Redmine. Получает ответ от врача</text>
</g>
<!-- ad79b56daef04eca97409a32d75691e4&#45;&gt;6509054b8a454dcba169a1a302cb5356 -->
<g id="edge1" class="edge">
<title>ad79b56daef04eca97409a32d75691e4&#45;&gt;6509054b8a454dcba169a1a302cb5356</title>
<path fill="none" stroke="#999999" stroke-dasharray="5,2" d="M82.01,-139.29C73.24,-192.37 65.07,-273.42 80.35,-341.9 84.48,-360.4 91.74,-379.4 99.72,-396.74"/>
<polygon fill="#999999" stroke="#999999" points="96.38,-397.85 103.84,-405.37 102.7,-394.83 96.38,-397.85"/>
<text text-anchor="start" x="85.1" y="-286.05" font-family="Sans-Serif" font-size="10.00" fill="#2d3436">Загружает МРТ&#45;снимок,</text>
<text text-anchor="start" x="80.6" y="-274.8" font-family="Sans-Serif" font-size="10.00" fill="#2d3436">ведет переписку с врачом</text>
</g>
<!-- eef2c6c2d82f42f2a94d87d1ee9af18e -->
<g id="node4" class="node">
<title>eef2c6c2d82f42f2a94d87d1ee9af18e</title>
<polygon fill="#999999" stroke="black" points="411.2,-341.9 224,-341.9 224,-226.7 411.2,-226.7 411.2,-341.9"/>
<text text-anchor="start" x="278.98" y="-300.9" font-family="Sans-Serif" font-weight="bold" font-size="12.00" fill="white">Email System</text>
<text text-anchor="start" x="282.35" y="-291.75" font-family="Sans-Serif" font-size="9.00" fill="white">[External System]</text>
<text text-anchor="start" x="223.48" y="-268.8" font-family="Sans-Serif" font-size="10.00" fill="white">Система уведомлений пользователей о</text>
<text text-anchor="start" x="273.73" y="-258.8" font-family="Sans-Serif" font-size="10.00" fill="white">новых сообщениях</text>
</g>
<!-- 6509054b8a454dcba169a1a302cb5356&#45;&gt;eef2c6c2d82f42f2a94d87d1ee9af18e -->
<g id="edge5" class="edge">
<title>6509054b8a454dcba169a1a302cb5356&#45;&gt;eef2c6c2d82f42f2a94d87d1ee9af18e</title>
<path fill="none" stroke="#999999" stroke-dasharray="5,2" d="M162.29,-407C169.66,-393.63 178.57,-380.04 188.85,-368.9 196.66,-360.44 205.49,-352.45 214.79,-345.02"/>
<polygon fill="#999999" stroke="#999999" points="216.84,-347.87 222.63,-338.99 212.57,-342.32 216.84,-347.87"/>
<text text-anchor="start" x="189.6" y="-370.65" font-family="Sans-Serif" font-size="10.00" fill="#2d3436">Запускает рассылку</text>
</g>
<!-- eef2c6c2d82f42f2a94d87d1ee9af18e&#45;&gt;fa1bfa8607a74b38b29b8c6c40cee049 -->
<g id="edge4" class="edge">
<title>eef2c6c2d82f42f2a94d87d1ee9af18e&#45;&gt;fa1bfa8607a74b38b29b8c6c40cee049</title>
<path fill="none" stroke="#999999" stroke-dasharray="5,2" d="M321.87,-342.3C324.41,-403.85 322.4,-503.75 291.6,-583.1 289.37,-588.85 286.61,-594.54 283.51,-600.08"/>
<polygon fill="#999999" stroke="#999999" points="280.55,-598.21 278.37,-608.58 286.54,-601.83 280.55,-598.21"/>
<text text-anchor="start" x="322.6" y="-472.12" font-family="Sans-Serif" font-size="10.00" fill="#2d3436">Уведомляет пользователя</text>
<text text-anchor="start" x="335.35" y="-460.88" font-family="Sans-Serif" font-size="10.00" fill="#2d3436">о новом сообщении в</text>
<text text-anchor="start" x="360.85" y="-449.62" font-family="Sans-Serif" font-size="10.00" fill="#2d3436">переписке</text>
</g>
<!-- eef2c6c2d82f42f2a94d87d1ee9af18e&#45;&gt;ad79b56daef04eca97409a32d75691e4 -->
<g id="edge3" class="edge">
<title>eef2c6c2d82f42f2a94d87d1ee9af18e&#45;&gt;ad79b56daef04eca97409a32d75691e4</title>
<path fill="none" stroke="#999999" stroke-dasharray="5,2" d="M254.01,-226.25C226.34,-201.44 193.8,-172.24 165.28,-146.65"/>
<polygon fill="#999999" stroke="#999999" points="167.87,-144.27 158.09,-140.2 163.19,-149.49 167.87,-144.27"/>
<text text-anchor="start" x="219.6" y="-190.2" font-family="Sans-Serif" font-size="10.00" fill="#2d3436">Уведомляет пользователя</text>
<text text-anchor="start" x="232.35" y="-178.95" font-family="Sans-Serif" font-size="10.00" fill="#2d3436">о новом сообщении в</text>
<text text-anchor="start" x="257.85" y="-167.7" font-family="Sans-Serif" font-size="10.00" fill="#2d3436">переписке</text>
</g>
</g>
</svg>
