<?xml version="1.0" encoding="UTF-8" standalone="no"?>
<!DOCTYPE svg PUBLIC "-//W3C//DTD SVG 1.1//EN"
 "http://www.w3.org/Graphics/SVG/1.1/DTD/svg11.dtd">
<!-- Generated by graphviz version 9.0.0 (20230911.1827)
 -->
<!-- Title: ai&#45;screen&#45;it&#45;С4&#45;component Pages: 1 -->
<svg width="1006pt" height="1702pt"
 viewBox="0.00 0.00 1006.00 1702.40" xmlns="http://www.w3.org/2000/svg" xmlns:xlink="http://www.w3.org/1999/xlink">
<g id="graph0" class="graph" transform="scale(1 1) rotate(0) translate(144 1558.4)">
<title>ai&#45;screen&#45;it&#45;С4&#45;component</title>
<polygon fill="white" stroke="none" points="-144,144 -144,-1558.4 862,-1558.4 862,144 -144,144"/>
<text text-anchor="middle" x="359" y="-5.5" font-family="Sans-Serif" font-size="15.00" fill="#2d3436">ai&#45;screen&#45;it&#45;С4&#45;component</text>
<g id="clust1" class="cluster">
<title>cluster_Decision Support System</title>
<polygon fill="white" stroke="#aeb6be" stroke-dasharray="5,2" points="8,-31.75 8,-1038.75 710,-1038.75 710,-31.75 8,-31.75"/>
<text text-anchor="middle" x="83.5" y="-1023.35" font-family="Sans-Serif" font-size="12.00" fill="#2d3436">Decision Support System</text>
</g>
<g id="clust3" class="cluster">
<title>cluster_Kafka Container</title>
<polygon fill="white" stroke="#aeb6be" stroke-dasharray="5,2" points="209,-432.9 209,-600.85 429,-600.85 429,-432.9 209,-432.9"/>
<text text-anchor="middle" x="260.12" y="-585.45" font-family="Sans-Serif" font-size="12.00" fill="#2d3436">Kafka Container</text>
</g>
<g id="clust4" class="cluster">
<title>cluster_Spark Container</title>
<polygon fill="white" stroke="#aeb6be" stroke-dasharray="5,2" points="238,-223.45 238,-391.4 458,-391.4 458,-223.45 238,-223.45"/>
<text text-anchor="middle" x="289.5" y="-376" font-family="Sans-Serif" font-size="12.00" fill="#2d3436">Spark Container</text>
</g>
<g id="clust5" class="cluster">
<title>cluster_Hadoop Container</title>
<polygon fill="white" stroke="#aeb6be" stroke-dasharray="5,2" points="474,-223.45 474,-391.4 694,-391.4 694,-223.45 474,-223.45"/>
<text text-anchor="middle" x="531.12" y="-376" font-family="Sans-Serif" font-size="12.00" fill="#2d3436">Hadoop Container</text>
</g>
<g id="clust2" class="cluster">
<title>cluster_Redmine Container</title>
<polygon fill="white" stroke="#aeb6be" stroke-dasharray="5,2" points="234,-642.35 234,-1002 591,-1002 591,-642.35 234,-642.35"/>
<text text-anchor="middle" x="294.12" y="-986.6" font-family="Sans-Serif" font-size="12.00" fill="#2d3436">Redmine Container</text>
</g>
<!-- 9d918c4795424deabf4f3205ca2043b8 -->
<g id="node1" class="node">
<title>9d918c4795424deabf4f3205ca2043b8</title>
<path fill="#104e8b" stroke="black" d="M304.6,-1211.45C304.6,-1211.45 141.4,-1211.45 141.4,-1211.45 135.4,-1211.45 129.4,-1205.45 129.4,-1199.45 129.4,-1199.45 129.4,-1108.25 129.4,-1108.25 129.4,-1102.25 135.4,-1096.25 141.4,-1096.25 141.4,-1096.25 304.6,-1096.25 304.6,-1096.25 310.6,-1096.25 316.6,-1102.25 316.6,-1108.25 316.6,-1108.25 316.6,-1199.45 316.6,-1199.45 316.6,-1205.45 310.6,-1211.45 304.6,-1211.45"/>
<text text-anchor="start" x="208" y="-1175.45" font-family="Sans-Serif" font-weight="bold" font-size="12.00" fill="white">Врач</text>
<text text-anchor="start" x="206.12" y="-1166.3" font-family="Sans-Serif" font-size="9.00" fill="white">[Person]</text>
<text text-anchor="start" x="129.62" y="-1143.35" font-family="Sans-Serif" font-size="10.00" fill="white">Ведет переписку с пациентом. Создает</text>
<text text-anchor="start" x="125.12" y="-1133.35" font-family="Sans-Serif" font-size="10.00" fill="white">карточку для пациента, а затем отвечает</text>
<text text-anchor="start" x="145.75" y="-1123.35" font-family="Sans-Serif" font-size="10.00" fill="white">ему, учитывая рез&#45;т ML моделей</text>
</g>
<!-- 71b4f92bead941b195c538fb4be9ee46 -->
<g id="node3" class="node">
<title>71b4f92bead941b195c538fb4be9ee46</title>
<polygon fill="#1874cd" stroke="black" points="489.6,-965.25 302.4,-965.25 302.4,-850.05 489.6,-850.05 489.6,-965.25"/>
<text text-anchor="start" x="363" y="-924.25" font-family="Sans-Serif" font-weight="bold" font-size="12.00" fill="white">Redmine UI</text>
<text text-anchor="start" x="349.88" y="-915.1" font-family="Sans-Serif" font-size="9.00" fill="white">[Container: JavaScript]</text>
<text text-anchor="start" x="322.5" y="-892.15" font-family="Sans-Serif" font-size="10.00" fill="white">Пользоват.интерфейс Redmine</text>
</g>
<!-- 9d918c4795424deabf4f3205ca2043b8&#45;&gt;71b4f92bead941b195c538fb4be9ee46 -->
<g id="edge2" class="edge">
<title>9d918c4795424deabf4f3205ca2043b8&#45;&gt;71b4f92bead941b195c538fb4be9ee46</title>
<path fill="none" stroke="#999999" stroke-dasharray="5,2" d="M263.34,-1095.9C289.04,-1059.63 322.42,-1012.51 349.27,-974.61"/>
<polygon fill="#999999" stroke="#999999" points="351.79,-977.1 354.72,-966.92 346.08,-973.06 351.79,-977.1"/>
<text text-anchor="start" x="294" y="-1059.75" font-family="Sans-Serif" font-size="10.00" fill="#2d3436">Создает карточку для</text>
<text text-anchor="start" x="324.75" y="-1048.5" font-family="Sans-Serif" font-size="10.00" fill="#2d3436">пациента</text>
</g>
<!-- 33a3d6f4f963476fb06a023daba916a4 -->
<g id="node2" class="node">
<title>33a3d6f4f963476fb06a023daba916a4</title>
<path fill="#104e8b" stroke="black" d="M534.6,-1211.45C534.6,-1211.45 371.4,-1211.45 371.4,-1211.45 365.4,-1211.45 359.4,-1205.45 359.4,-1199.45 359.4,-1199.45 359.4,-1108.25 359.4,-1108.25 359.4,-1102.25 365.4,-1096.25 371.4,-1096.25 371.4,-1096.25 534.6,-1096.25 534.6,-1096.25 540.6,-1096.25 546.6,-1102.25 546.6,-1108.25 546.6,-1108.25 546.6,-1199.45 546.6,-1199.45 546.6,-1205.45 540.6,-1211.45 534.6,-1211.45"/>
<text text-anchor="start" x="427.5" y="-1170.45" font-family="Sans-Serif" font-weight="bold" font-size="12.00" fill="white">Пациент</text>
<text text-anchor="start" x="436.12" y="-1161.3" font-family="Sans-Serif" font-size="9.00" fill="white">[Person]</text>
<text text-anchor="start" x="346.12" y="-1138.35" font-family="Sans-Serif" font-size="10.00" fill="white">Общается с врачом. Отправляет МРТ&#45;снимок</text>
<text text-anchor="start" x="367.88" y="-1128.35" font-family="Sans-Serif" font-size="10.00" fill="white">в Redmine. Получает ответ от врача</text>
</g>
<!-- 33a3d6f4f963476fb06a023daba916a4&#45;&gt;71b4f92bead941b195c538fb4be9ee46 -->
<g id="edge1" class="edge">
<title>33a3d6f4f963476fb06a023daba916a4&#45;&gt;71b4f92bead941b195c538fb4be9ee46</title>
<path fill="none" stroke="#999999" stroke-dasharray="5,2" d="M439.71,-1095.9C431.38,-1060.24 420.61,-1014.1 411.85,-976.54"/>
<polygon fill="#999999" stroke="#999999" points="415.34,-976.1 409.66,-967.16 408.52,-977.69 415.34,-976.1"/>
<text text-anchor="start" x="432" y="-1054.12" font-family="Sans-Serif" font-size="10.00" fill="#2d3436">Загружает МРТ&#45;снимок</text>
</g>
<!-- 62f38f19ce7143eda2dad6e54fd2ca01 -->
<g id="node4" class="node">
<title>62f38f19ce7143eda2dad6e54fd2ca01</title>
<polygon fill="#1874cd" stroke="black" points="470.6,-773.55 283.4,-773.55 283.4,-658.35 470.6,-658.35 470.6,-773.55"/>
<text text-anchor="start" x="340.25" y="-732.55" font-family="Sans-Serif" font-weight="bold" font-size="12.00" fill="white">Redmine API</text>
<text text-anchor="start" x="313.25" y="-723.4" font-family="Sans-Serif" font-size="9.00" fill="white">[Container: Redmine back&#45;end]</text>
<text text-anchor="start" x="347.75" y="-700.45" font-family="Sans-Serif" font-size="10.00" fill="white">API Redmine</text>
</g>
<!-- 71b4f92bead941b195c538fb4be9ee46&#45;&gt;62f38f19ce7143eda2dad6e54fd2ca01 -->
<g id="edge5" class="edge">
<title>71b4f92bead941b195c538fb4be9ee46&#45;&gt;62f38f19ce7143eda2dad6e54fd2ca01</title>
<path fill="none" stroke="#999999" stroke-dasharray="5,2" d="M306.86,-849.66C299.45,-841.6 292.99,-832.72 288.25,-823.05 281.52,-809.3 283.64,-795.82 290.63,-783.33"/>
<polygon fill="#999999" stroke="#999999" points="293.38,-785.5 296.01,-775.24 287.56,-781.62 293.38,-785.5"/>
<text text-anchor="start" x="294.38" y="-813.55" font-family="Sans-Serif" font-size="10.00" fill="#2d3436">Передает снимок из</text>
<text text-anchor="start" x="288" y="-802.3" font-family="Sans-Serif" font-size="10.00" fill="#2d3436">фронта на бек Redmine</text>
</g>
<!-- 62f38f19ce7143eda2dad6e54fd2ca01&#45;&gt;71b4f92bead941b195c538fb4be9ee46 -->
<g id="edge6" class="edge">
<title>62f38f19ce7143eda2dad6e54fd2ca01&#45;&gt;71b4f92bead941b195c538fb4be9ee46</title>
<path fill="none" stroke="#999999" stroke-dasharray="5,2" d="M397.22,-773.98C399.62,-782.78 401.68,-791.83 403,-800.55 404.85,-812.71 405.26,-825.72 404.86,-838.32"/>
<polygon fill="#999999" stroke="#999999" points="401.37,-838.07 404.35,-848.23 408.36,-838.42 401.37,-838.07"/>
<text text-anchor="start" x="404" y="-813.55" font-family="Sans-Serif" font-size="10.00" fill="#2d3436">Возвращает ответ модели</text>
<text text-anchor="start" x="456.88" y="-802.3" font-family="Sans-Serif" font-size="10.00" fill="#2d3436">в UI</text>
</g>
<!-- 7b208f9d67344aefba126b6903208074 -->
<g id="node5" class="node">
<title>7b208f9d67344aefba126b6903208074</title>
<polygon fill="#1874cd" stroke="black" points="412.6,-564.1 225.4,-564.1 225.4,-448.9 412.6,-448.9 412.6,-564.1"/>
<text text-anchor="start" x="296.12" y="-523.1" font-family="Sans-Serif" font-weight="bold" font-size="12.00" fill="white">Brokers</text>
<text text-anchor="start" x="248.88" y="-513.95" font-family="Sans-Serif" font-size="9.00" fill="white">[Container: Apache Kafka Brokers]</text>
<text text-anchor="start" x="220.75" y="-491" font-family="Sans-Serif" font-size="10.00" fill="white">Серверы для потоковой передачи данных</text>
</g>
<!-- 62f38f19ce7143eda2dad6e54fd2ca01&#45;&gt;7b208f9d67344aefba126b6903208074 -->
<g id="edge7" class="edge">
<title>62f38f19ce7143eda2dad6e54fd2ca01&#45;&gt;7b208f9d67344aefba126b6903208074</title>
<path fill="none" stroke="#999999" stroke-dasharray="5,2" d="M302.31,-657.97C294.54,-652.54 286.68,-647.24 279,-642.35 270.36,-636.84 263.99,-640.15 258.75,-631.35 248.03,-613.32 251.73,-593.1 261.23,-574.31"/>
<polygon fill="#999999" stroke="#999999" points="264.25,-576.09 266.12,-565.66 258.15,-572.65 264.25,-576.09"/>
<text text-anchor="start" x="258" y="-621.85" font-family="Sans-Serif" font-size="10.00" fill="#2d3436">Передает снимок на</text>
<text text-anchor="start" x="282" y="-610.6" font-family="Sans-Serif" font-size="10.00" fill="#2d3436">обработку</text>
</g>
<!-- 7b208f9d67344aefba126b6903208074&#45;&gt;62f38f19ce7143eda2dad6e54fd2ca01 -->
<g id="edge8" class="edge">
<title>7b208f9d67344aefba126b6903208074&#45;&gt;62f38f19ce7143eda2dad6e54fd2ca01</title>
<path fill="none" stroke="#999999" stroke-dasharray="5,2" d="M344.61,-564.33C350.32,-578.65 355.9,-594.13 360,-608.85 363.39,-621.01 366.17,-634.16 368.44,-646.92"/>
<polygon fill="#999999" stroke="#999999" points="364.94,-647.22 370.04,-656.51 371.84,-646.07 364.94,-647.22"/>
<text text-anchor="start" x="364" y="-616.23" font-family="Sans-Serif" font-size="10.00" fill="#2d3436">Возвращает ответ моделей</text>
</g>
<!-- 55906076ca1f45fa865db8c600abf915 -->
<g id="node6" class="node">
<title>55906076ca1f45fa865db8c600abf915</title>
<polygon fill="#1874cd" stroke="black" points="441.6,-354.65 254.4,-354.65 254.4,-239.45 441.6,-239.45 441.6,-354.65"/>
<text text-anchor="start" x="316.88" y="-313.65" font-family="Sans-Serif" font-weight="bold" font-size="12.00" fill="white">ML models</text>
<text text-anchor="start" x="325.5" y="-304.5" font-family="Sans-Serif" font-size="9.00" fill="white">[Container]</text>
<text text-anchor="start" x="264" y="-281.55" font-family="Sans-Serif" font-size="10.00" fill="white">Сервис для инференса ML моделей</text>
</g>
<!-- 7b208f9d67344aefba126b6903208074&#45;&gt;55906076ca1f45fa865db8c600abf915 -->
<g id="edge9" class="edge">
<title>7b208f9d67344aefba126b6903208074&#45;&gt;55906076ca1f45fa865db8c600abf915</title>
<path fill="none" stroke="#999999" stroke-dasharray="5,2" d="M264.44,-448.51C255.75,-433.06 251.43,-416 257.75,-399.4 262.5,-386.93 269.56,-375.01 277.69,-364.02"/>
<polygon fill="#999999" stroke="#999999" points="280.4,-366.24 283.8,-356.2 274.88,-361.93 280.4,-366.24"/>
<text text-anchor="start" x="257" y="-412.4" font-family="Sans-Serif" font-size="10.00" fill="#2d3436">Передает снимок на</text>
<text text-anchor="start" x="281" y="-401.15" font-family="Sans-Serif" font-size="10.00" fill="#2d3436">обработку</text>
</g>
<!-- 8abce1a1e98b4d62a9d04a1205e587cb -->
<g id="node7" class="node">
<title>8abce1a1e98b4d62a9d04a1205e587cb</title>
<polygon fill="#1874cd" stroke="black" points="211.6,-354.65 24.4,-354.65 24.4,-239.45 211.6,-239.45 211.6,-354.65"/>
<text text-anchor="start" x="86.12" y="-313.65" font-family="Sans-Serif" font-weight="bold" font-size="12.00" fill="white">Python API</text>
<text text-anchor="start" x="77.5" y="-304.5" font-family="Sans-Serif" font-size="9.00" fill="white">[Container: FastAPI]</text>
<text text-anchor="start" x="22.75" y="-281.55" font-family="Sans-Serif" font-size="10.00" fill="white">API для взаимодействия с Email System</text>
</g>
<!-- 7b208f9d67344aefba126b6903208074&#45;&gt;8abce1a1e98b4d62a9d04a1205e587cb -->
<g id="edge12" class="edge">
<title>7b208f9d67344aefba126b6903208074&#45;&gt;8abce1a1e98b4d62a9d04a1205e587cb</title>
<path fill="none" stroke="#999999" stroke-dasharray="5,2" d="M249.87,-448.55C240.54,-442.61 230.8,-437.19 221,-432.9 196.96,-422.38 182.99,-438.9 163,-421.9 146.31,-407.7 135.81,-386.79 129.2,-366.18"/>
<polygon fill="#999999" stroke="#999999" points="132.57,-365.22 126.43,-356.59 125.84,-367.16 132.57,-365.22"/>
<text text-anchor="start" x="163" y="-412.4" font-family="Sans-Serif" font-size="10.00" fill="#2d3436">Триггерит запуск</text>
<text text-anchor="start" x="180.62" y="-401.15" font-family="Sans-Serif" font-size="10.00" fill="#2d3436">рассылки</text>
</g>
<!-- 672510635a4242bb9360628613e766d9 -->
<g id="node8" class="node">
<title>672510635a4242bb9360628613e766d9</title>
<polygon fill="#1874cd" stroke="black" points="677.6,-354.65 490.4,-354.65 490.4,-239.45 677.6,-239.45 677.6,-354.65"/>
<text text-anchor="start" x="567.12" y="-313.65" font-family="Sans-Serif" font-weight="bold" font-size="12.00" fill="white">HDFS</text>
<text text-anchor="start" x="546.88" y="-304.5" font-family="Sans-Serif" font-size="9.00" fill="white">[Container: HDFS]</text>
<text text-anchor="start" x="485" y="-281.55" font-family="Sans-Serif" font-size="10.00" fill="white">Файловая система для хранения больших</text>
<text text-anchor="start" x="566.75" y="-271.55" font-family="Sans-Serif" font-size="10.00" fill="white">данных</text>
</g>
<!-- 7b208f9d67344aefba126b6903208074&#45;&gt;672510635a4242bb9360628613e766d9 -->
<g id="edge11" class="edge">
<title>7b208f9d67344aefba126b6903208074&#45;&gt;672510635a4242bb9360628613e766d9</title>
<path fill="none" stroke="#999999" stroke-dasharray="5,2" d="M412.7,-474.12C442.97,-461.07 475.32,-443.77 501,-421.9 519.71,-405.96 535.96,-384.81 549,-364.5"/>
<polygon fill="#999999" stroke="#999999" points="551.84,-366.56 554.15,-356.22 545.9,-362.86 551.84,-366.56"/>
<text text-anchor="start" x="521" y="-412.4" font-family="Sans-Serif" font-size="10.00" fill="#2d3436">Передает снимок в</text>
<text text-anchor="start" x="524.38" y="-401.15" font-family="Sans-Serif" font-size="10.00" fill="#2d3436">хранилище HDFS</text>
</g>
<!-- 55906076ca1f45fa865db8c600abf915&#45;&gt;7b208f9d67344aefba126b6903208074 -->
<g id="edge10" class="edge">
<title>55906076ca1f45fa865db8c600abf915&#45;&gt;7b208f9d67344aefba126b6903208074</title>
<path fill="none" stroke="#999999" stroke-dasharray="5,2" d="M360.4,-354.96C363.11,-376.17 363.9,-400.32 359,-421.9 357.76,-427.35 356.13,-432.86 354.22,-438.31"/>
<polygon fill="#999999" stroke="#999999" points="351.09,-436.7 350.79,-447.29 357.63,-439.19 351.09,-436.7"/>
<text text-anchor="start" x="361" y="-406.77" font-family="Sans-Serif" font-size="10.00" fill="#2d3436">Возвращает ответ моделей</text>
</g>
<!-- d9773adddd0b425fb4952d6085977d4c -->
<g id="node9" class="node">
<title>d9773adddd0b425fb4952d6085977d4c</title>
<path fill="#1874cd" stroke="black" d="M539.6,-152.48C539.6,-158.26 497.65,-162.95 446,-162.95 394.35,-162.95 352.4,-158.26 352.4,-152.48 352.4,-152.48 352.4,-58.22 352.4,-58.22 352.4,-52.44 394.35,-47.75 446,-47.75 497.65,-47.75 539.6,-52.44 539.6,-58.22 539.6,-58.22 539.6,-152.48 539.6,-152.48"/>
<path fill="none" stroke="black" d="M539.6,-152.48C539.6,-146.7 497.65,-142 446,-142 394.35,-142 352.4,-146.7 352.4,-152.48"/>
<text text-anchor="start" x="398" y="-101.97" font-family="Sans-Serif" font-weight="bold" font-size="12.00" fill="white">Data WareHouse</text>
<text text-anchor="start" x="412.62" y="-92.82" font-family="Sans-Serif" font-size="9.00" fill="white">[Database: SQL]</text>
<text text-anchor="start" x="352.62" y="-69.88" font-family="Sans-Serif" font-size="10.00" fill="white">Хранение данных для аналитиков, Data</text>
<text text-anchor="start" x="433.62" y="-59.88" font-family="Sans-Serif" font-size="10.00" fill="white">Marts</text>
</g>
<!-- 55906076ca1f45fa865db8c600abf915&#45;&gt;d9773adddd0b425fb4952d6085977d4c -->
<g id="edge14" class="edge">
<title>55906076ca1f45fa865db8c600abf915&#45;&gt;d9773adddd0b425fb4952d6085977d4c</title>
<path fill="none" stroke="#999999" stroke-dasharray="5,2" d="M377.4,-239.13C388.11,-218.41 400.31,-194.79 411.43,-173.27"/>
<polygon fill="#999999" stroke="#999999" points="414.44,-175.06 415.92,-164.57 408.22,-171.85 414.44,-175.06"/>
<text text-anchor="start" x="399" y="-202.95" font-family="Sans-Serif" font-size="10.00" fill="#2d3436">Сохраняет результаты</text>
<text text-anchor="start" x="432.75" y="-191.7" font-family="Sans-Serif" font-size="10.00" fill="#2d3436">моделей</text>
</g>
<!-- 4d046dfd7e6f46448c8af1c988b283b2 -->
<g id="node10" class="node">
<title>4d046dfd7e6f46448c8af1c988b283b2</title>
<polygon fill="#999999" stroke="black" points="316.6,-1414.4 129.4,-1414.4 129.4,-1299.2 316.6,-1299.2 316.6,-1414.4"/>
<text text-anchor="start" x="184.38" y="-1373.4" font-family="Sans-Serif" font-weight="bold" font-size="12.00" fill="white">Email System</text>
<text text-anchor="start" x="187.75" y="-1364.25" font-family="Sans-Serif" font-size="9.00" fill="white">[External System]</text>
<text text-anchor="start" x="128.88" y="-1341.3" font-family="Sans-Serif" font-size="10.00" fill="white">Система уведомлений пользователей о</text>
<text text-anchor="start" x="179.12" y="-1331.3" font-family="Sans-Serif" font-size="10.00" fill="white">новых сообщениях</text>
</g>
<!-- 8abce1a1e98b4d62a9d04a1205e587cb&#45;&gt;4d046dfd7e6f46448c8af1c988b283b2 -->
<g id="edge13" class="edge">
<title>8abce1a1e98b4d62a9d04a1205e587cb&#45;&gt;4d046dfd7e6f46448c8af1c988b283b2</title>
<path fill="none" stroke="#999999" stroke-dasharray="5,2" d="M94.79,-355.14C80.15,-396.24 64,-453.4 64,-505.5 64,-1154.85 64,-1154.85 64,-1154.85 64,-1208.2 98.9,-1255.67 135.99,-1291.06"/>
<polygon fill="#999999" stroke="#999999" points="133.61,-1293.62 143.32,-1297.85 138.36,-1288.48 133.61,-1293.62"/>
<text text-anchor="start" x="64" y="-807.93" font-family="Sans-Serif" font-size="10.00" fill="#2d3436">Запускает рассылку</text>
</g>
<!-- 672510635a4242bb9360628613e766d9&#45;&gt;d9773adddd0b425fb4952d6085977d4c -->
<g id="edge15" class="edge">
<title>672510635a4242bb9360628613e766d9&#45;&gt;d9773adddd0b425fb4952d6085977d4c</title>
<path fill="none" stroke="#999999" stroke-dasharray="5,2" d="M550.15,-239.18C539.95,-222.96 528.42,-205.49 517,-189.95 512.61,-183.97 507.91,-177.87 503.09,-171.83"/>
<polygon fill="#999999" stroke="#999999" points="505.95,-169.8 496.93,-164.22 500.5,-174.2 505.95,-169.8"/>
<text text-anchor="start" x="530" y="-202.95" font-family="Sans-Serif" font-size="10.00" fill="#2d3436">Передает данные для</text>
<text text-anchor="start" x="564.88" y="-191.7" font-family="Sans-Serif" font-size="10.00" fill="#2d3436">витрин</text>
</g>
<!-- 4d046dfd7e6f46448c8af1c988b283b2&#45;&gt;9d918c4795424deabf4f3205ca2043b8 -->
<g id="edge4" class="edge">
<title>4d046dfd7e6f46448c8af1c988b283b2&#45;&gt;9d918c4795424deabf4f3205ca2043b8</title>
<path fill="none" stroke="#999999" stroke-dasharray="5,2" d="M223,-1298.75C223,-1275.21 223,-1247.74 223,-1223.14"/>
<polygon fill="#999999" stroke="#999999" points="226.5,-1223.2 223,-1213.2 219.5,-1223.2 226.5,-1223.2"/>
<text text-anchor="start" x="223" y="-1262.7" font-family="Sans-Serif" font-size="10.00" fill="#2d3436">Уведомляет пользователя</text>
<text text-anchor="start" x="235.75" y="-1251.45" font-family="Sans-Serif" font-size="10.00" fill="#2d3436">о новом сообщении в</text>
<text text-anchor="start" x="261.25" y="-1240.2" font-family="Sans-Serif" font-size="10.00" fill="#2d3436">переписке</text>
</g>
<!-- 4d046dfd7e6f46448c8af1c988b283b2&#45;&gt;33a3d6f4f963476fb06a023daba916a4 -->
<g id="edge3" class="edge">
<title>4d046dfd7e6f46448c8af1c988b283b2&#45;&gt;33a3d6f4f963476fb06a023daba916a4</title>
<path fill="none" stroke="#999999" stroke-dasharray="5,2" d="M317.05,-1303.29C331.35,-1293.71 345.49,-1283.23 358,-1272.2 375.32,-1256.93 391.97,-1238.28 406.36,-1220.38"/>
<polygon fill="#999999" stroke="#999999" points="408.85,-1222.87 412.3,-1212.85 403.35,-1218.54 408.85,-1222.87"/>
<text text-anchor="start" x="389" y="-1262.7" font-family="Sans-Serif" font-size="10.00" fill="#2d3436">Уведомляет пользователя</text>
<text text-anchor="start" x="401.75" y="-1251.45" font-family="Sans-Serif" font-size="10.00" fill="#2d3436">о новом сообщении в</text>
<text text-anchor="start" x="427.25" y="-1240.2" font-family="Sans-Serif" font-size="10.00" fill="#2d3436">переписке</text>
</g>
</g>
</svg>
