<?xml version="1.0" encoding="UTF-8" standalone="no"?>
<!DOCTYPE svg PUBLIC "-//W3C//DTD SVG 1.1//EN"
 "http://www.w3.org/Graphics/SVG/1.1/DTD/svg11.dtd">
<!-- Generated by graphviz version 9.0.0 (20230911.1827)
 -->
<!-- Title: docs/c4&#45;components Pages: 1 -->
<svg width="1322pt" height="1247pt"
 viewBox="0.00 0.00 1322.00 1246.80" xmlns="http://www.w3.org/2000/svg" xmlns:xlink="http://www.w3.org/1999/xlink">
<g id="graph0" class="graph" transform="scale(1 1) rotate(0) translate(144 1102.8)">
<title>docs/c4&#45;components</title>
<polygon fill="white" stroke="none" points="-144,144 -144,-1102.8 1178,-1102.8 1178,144 -144,144"/>
<text text-anchor="middle" x="517" y="-5.5" font-family="Sans-Serif" font-size="15.00" fill="#2d3436">docs/c4&#45;components</text>
<g id="clust1" class="cluster">
<title>cluster_ML конвейер</title>
<polygon fill="white" stroke="#aeb6be" stroke-dasharray="5,2" points="441,-236.45 441,-840.55 1026,-840.55 1026,-236.45 441,-236.45"/>
<text text-anchor="middle" x="485.75" y="-825.15" font-family="Sans-Serif" font-size="12.00" fill="#2d3436">ML конвейер</text>
</g>
<g id="clust2" class="cluster">
<title>cluster_ML сервис</title>
<polygon fill="white" stroke="#aeb6be" stroke-dasharray="5,2" points="457,-252.45 457,-803.8 806,-803.8 806,-252.45 457,-252.45"/>
<text text-anchor="middle" x="494.25" y="-788.4" font-family="Sans-Serif" font-size="12.00" fill="#2d3436">ML сервис</text>
</g>
<g id="clust3" class="cluster">
<title>cluster_Онлайн кинотеатр</title>
<polygon fill="white" stroke="#aeb6be" stroke-dasharray="5,2" points="8,-31.75 8,-782.2 433,-782.2 433,-31.75 8,-31.75"/>
<text text-anchor="middle" x="68.5" y="-766.8" font-family="Sans-Serif" font-size="12.00" fill="#2d3436">Онлайн кинотеатр</text>
</g>
<g id="clust4" class="cluster">
<title>cluster_Бэкенд сервиса</title>
<polygon fill="white" stroke="#aeb6be" stroke-dasharray="5,2" points="24,-47.75 24,-590.5 417,-590.5 417,-47.75 24,-47.75"/>
<text text-anchor="middle" x="77.38" y="-575.1" font-family="Sans-Serif" font-size="12.00" fill="#2d3436">Бэкенд сервиса</text>
</g>
<!-- f492a76f68fd4db69b3d280916aaa871 -->
<g id="node1" class="node">
<title>f492a76f68fd4db69b3d280916aaa871</title>
<path fill="#104e8b" stroke="black" d="M228,-958.8C228,-958.8 108,-958.8 108,-958.8 102,-958.8 96,-952.8 96,-946.8 96,-946.8 96,-898.8 96,-898.8 96,-892.8 102,-886.8 108,-886.8 108,-886.8 228,-886.8 228,-886.8 234,-886.8 240,-892.8 240,-898.8 240,-898.8 240,-946.8 240,-946.8 240,-952.8 234,-958.8 228,-958.8"/>
<text text-anchor="start" x="125.25" y="-922.9" font-family="Sans-Serif" font-weight="bold" font-size="12.00" fill="white">Пользователь</text>
<text text-anchor="start" x="151.12" y="-913.75" font-family="Sans-Serif" font-size="9.00" fill="white">[Person]</text>
</g>
<!-- 93162e054db74c81a6083d3dedeaf9ba -->
<g id="node6" class="node">
<title>93162e054db74c81a6083d3dedeaf9ba</title>
<polygon fill="#1874cd" stroke="black" points="240,-745.45 96,-745.45 96,-673.45 240,-673.45 240,-745.45"/>
<text text-anchor="start" x="111.75" y="-709.55" font-family="Sans-Serif" font-weight="bold" font-size="12.00" fill="white">Фронтенд сервиса</text>
<text text-anchor="start" x="145.5" y="-700.4" font-family="Sans-Serif" font-size="9.00" fill="white">[Container]</text>
</g>
<!-- f492a76f68fd4db69b3d280916aaa871&#45;&gt;93162e054db74c81a6083d3dedeaf9ba -->
<g id="edge1" class="edge">
<title>f492a76f68fd4db69b3d280916aaa871&#45;&gt;93162e054db74c81a6083d3dedeaf9ba</title>
<path fill="none" stroke="#999999" stroke-dasharray="5,2" d="M168,-886.42C168,-850.99 168,-796.26 168,-757.25"/>
<polygon fill="#999999" stroke="#999999" points="171.5,-757.45 168,-747.45 164.5,-757.45 171.5,-757.45"/>
<text text-anchor="start" x="168" y="-850.3" font-family="Sans-Serif" font-size="10.00" fill="#2d3436">Использует фронтенд</text>
</g>
<!-- dcb72e741990481d9014f628bc306598 -->
<g id="node2" class="node">
<title>dcb72e741990481d9014f628bc306598</title>
<polygon fill="#1874cd" stroke="black" points="720.6,-575.35 533.4,-575.35 533.4,-460.15 720.6,-460.15 720.6,-575.35"/>
<text text-anchor="start" x="573" y="-534.35" font-family="Sans-Serif" font-weight="bold" font-size="12.00" fill="white">Spark Applications</text>
<text text-anchor="start" x="590.25" y="-525.2" font-family="Sans-Serif" font-size="9.00" fill="white">[Container: Spark]</text>
<text text-anchor="start" x="580.88" y="-502.25" font-family="Sans-Serif" font-size="10.00" fill="white">Запуск ML моделей</text>
</g>
<!-- 736b8aee5355431ebec506fca1daf58a -->
<g id="node4" class="node">
<title>736b8aee5355431ebec506fca1daf58a</title>
<polygon fill="#1874cd" stroke="black" points="719.6,-383.65 532.4,-383.65 532.4,-268.45 719.6,-268.45 719.6,-383.65"/>
<text text-anchor="start" x="607.25" y="-342.65" font-family="Sans-Serif" font-weight="bold" font-size="12.00" fill="white">mlflow</text>
<text text-anchor="start" x="603.5" y="-333.5" font-family="Sans-Serif" font-size="9.00" fill="white">[Container]</text>
<text text-anchor="start" x="554.38" y="-310.55" font-family="Sans-Serif" font-size="10.00" fill="white">Хранение ML моделей, метрик</text>
</g>
<!-- dcb72e741990481d9014f628bc306598&#45;&gt;736b8aee5355431ebec506fca1daf58a -->
<g id="edge11" class="edge">
<title>dcb72e741990481d9014f628bc306598&#45;&gt;736b8aee5355431ebec506fca1daf58a</title>
<path fill="none" stroke="#999999" stroke-dasharray="5,2" d="M533.1,-465.68C522.74,-456.23 513.64,-445.4 507.25,-433.15 496.33,-412.21 505.92,-393.43 523.55,-377.7"/>
<polygon fill="#999999" stroke="#999999" points="525.44,-380.68 530.99,-371.65 521.02,-375.24 525.44,-380.68"/>
<text text-anchor="start" x="507" y="-423.65" font-family="Sans-Serif" font-size="10.00" fill="#2d3436">Использует ML модели из</text>
<text text-anchor="start" x="554.62" y="-412.4" font-family="Sans-Serif" font-size="10.00" fill="#2d3436">mlflow</text>
</g>
<!-- 1bb68457355f488eb95a3d99669b0345 -->
<g id="node5" class="node">
<title>1bb68457355f488eb95a3d99669b0345</title>
<path fill="#1874cd" stroke="black" d="M1009.6,-373.18C1009.6,-378.96 967.65,-383.65 916,-383.65 864.35,-383.65 822.4,-378.96 822.4,-373.18 822.4,-373.18 822.4,-278.92 822.4,-278.92 822.4,-273.14 864.35,-268.45 916,-268.45 967.65,-268.45 1009.6,-273.14 1009.6,-278.92 1009.6,-278.92 1009.6,-373.18 1009.6,-373.18"/>
<path fill="none" stroke="black" d="M1009.6,-373.18C1009.6,-367.4 967.65,-362.7 916,-362.7 864.35,-362.7 822.4,-367.4 822.4,-373.18"/>
<text text-anchor="start" x="825.25" y="-334.55" font-family="Sans-Serif" font-weight="bold" font-size="12.00" fill="white">Витрина данных для моделей</text>
<text text-anchor="start" x="879.25" y="-325.4" font-family="Sans-Serif" font-size="9.00" fill="white">[Database: HDFS]</text>
<text text-anchor="start" x="842.5" y="-302.45" font-family="Sans-Serif" font-size="10.00" fill="white">Данные в структурированном и</text>
<text text-anchor="start" x="842.12" y="-292.45" font-family="Sans-Serif" font-size="10.00" fill="white">быстродоступном формате для</text>
<text text-anchor="start" x="838" y="-282.45" font-family="Sans-Serif" font-size="10.00" fill="white">обучения/инференса ML моделей</text>
</g>
<!-- dcb72e741990481d9014f628bc306598&#45;&gt;1bb68457355f488eb95a3d99669b0345 -->
<g id="edge8" class="edge">
<title>dcb72e741990481d9014f628bc306598&#45;&gt;1bb68457355f488eb95a3d99669b0345</title>
<path fill="none" stroke="#999999" stroke-dasharray="5,2" d="M723.24,-453.58C759.24,-429.95 799.74,-403.36 834.3,-380.68"/>
<polygon fill="#999999" stroke="#999999" points="721.41,-450.59 714.97,-459 725.26,-456.44 721.41,-450.59"/>
<text text-anchor="start" x="780" y="-423.65" font-family="Sans-Serif" font-size="10.00" fill="#2d3436">Использует данные из</text>
<text text-anchor="start" x="813.38" y="-412.4" font-family="Sans-Serif" font-size="10.00" fill="#2d3436">витрины</text>
</g>
<!-- 2116315e6887416cb59ef6ffb74f3f6a -->
<g id="node9" class="node">
<title>2116315e6887416cb59ef6ffb74f3f6a</title>
<path fill="#1874cd" stroke="black" d="M400.6,-373.18C400.6,-378.96 358.65,-383.65 307,-383.65 255.35,-383.65 213.4,-378.96 213.4,-373.18 213.4,-373.18 213.4,-278.92 213.4,-278.92 213.4,-273.14 255.35,-268.45 307,-268.45 358.65,-268.45 400.6,-273.14 400.6,-278.92 400.6,-278.92 400.6,-373.18 400.6,-373.18"/>
<path fill="none" stroke="black" d="M400.6,-373.18C400.6,-367.4 358.65,-362.7 307,-362.7 255.35,-362.7 213.4,-367.4 213.4,-373.18"/>
<text text-anchor="start" x="280" y="-322.67" font-family="Sans-Serif" font-weight="bold" font-size="12.00" fill="white">DataLake</text>
<text text-anchor="start" x="236.88" y="-313.52" font-family="Sans-Serif" font-size="9.00" fill="white">[Database: Databricks Lakehouse]</text>
<text text-anchor="start" x="212.5" y="-290.57" font-family="Sans-Serif" font-size="10.00" fill="white">Данные сервиса в неструктурированном</text>
<text text-anchor="start" x="286.38" y="-280.57" font-family="Sans-Serif" font-size="10.00" fill="white">формате</text>
</g>
<!-- dcb72e741990481d9014f628bc306598&#45;&gt;2116315e6887416cb59ef6ffb74f3f6a -->
<g id="edge12" class="edge">
<title>dcb72e741990481d9014f628bc306598&#45;&gt;2116315e6887416cb59ef6ffb74f3f6a</title>
<path fill="none" stroke="#999999" stroke-dasharray="5,2" d="M521.96,-489.35C464.15,-472.82 399.45,-451.49 375.75,-433.15 358.91,-420.12 344.96,-401.73 334.13,-383.92"/>
<polygon fill="#999999" stroke="#999999" points="521.01,-492.72 531.58,-492.07 522.91,-485.98 521.01,-492.72"/>
<text text-anchor="start" x="375" y="-423.65" font-family="Sans-Serif" font-size="10.00" fill="#2d3436">Сохраняет результаты в</text>
<text text-anchor="start" x="412.12" y="-412.4" font-family="Sans-Serif" font-size="10.00" fill="#2d3436">DataLake</text>
</g>
<!-- c8936f86a851459d968292d742bb1b9e -->
<g id="node3" class="node">
<title>c8936f86a851459d968292d742bb1b9e</title>
<polygon fill="#1874cd" stroke="black" points="720.6,-767.05 533.4,-767.05 533.4,-651.85 720.6,-651.85 720.6,-767.05"/>
<text text-anchor="start" x="606.75" y="-726.05" font-family="Sans-Serif" font-weight="bold" font-size="12.00" fill="white">Airflow</text>
<text text-anchor="start" x="604.5" y="-716.9" font-family="Sans-Serif" font-size="9.00" fill="white">[Container]</text>
<text text-anchor="start" x="562.88" y="-693.95" font-family="Sans-Serif" font-size="10.00" fill="white">Оркестрация ML конвейера</text>
</g>
<!-- c8936f86a851459d968292d742bb1b9e&#45;&gt;dcb72e741990481d9014f628bc306598 -->
<g id="edge9" class="edge">
<title>c8936f86a851459d968292d742bb1b9e&#45;&gt;dcb72e741990481d9014f628bc306598</title>
<path fill="none" stroke="#999999" stroke-dasharray="5,2" d="M627,-651.53C627,-631.28 627,-608.25 627,-587.13"/>
<polygon fill="#999999" stroke="#999999" points="630.5,-587.14 627,-577.14 623.5,-587.14 630.5,-587.14"/>
<text text-anchor="start" x="627" y="-615.35" font-family="Sans-Serif" font-size="10.00" fill="#2d3436">Запускает spark</text>
<text text-anchor="start" x="636.38" y="-604.1" font-family="Sans-Serif" font-size="10.00" fill="#2d3436">приложения</text>
</g>
<!-- 736b8aee5355431ebec506fca1daf58a&#45;&gt;dcb72e741990481d9014f628bc306598 -->
<g id="edge10" class="edge">
<title>736b8aee5355431ebec506fca1daf58a&#45;&gt;dcb72e741990481d9014f628bc306598</title>
<path fill="none" stroke="#999999" stroke-dasharray="5,2" d="M637.61,-383.98C639.02,-392.87 640.23,-401.98 641,-410.65 642.09,-422.91 641.68,-435.92 640.47,-448.48"/>
<polygon fill="#999999" stroke="#999999" points="637,-448.02 639.33,-458.35 643.96,-448.82 637,-448.02"/>
<text text-anchor="start" x="641" y="-423.65" font-family="Sans-Serif" font-size="10.00" fill="#2d3436">Сохраняет обученные</text>
<text text-anchor="start" x="674.38" y="-412.4" font-family="Sans-Serif" font-size="10.00" fill="#2d3436">модели</text>
</g>
<!-- 37486d2f01eb4f1c9de480cc0c71c662 -->
<g id="node8" class="node">
<title>37486d2f01eb4f1c9de480cc0c71c662</title>
<polygon fill="#1874cd" stroke="black" points="375.6,-178.95 188.4,-178.95 188.4,-63.75 375.6,-63.75 375.6,-178.95"/>
<text text-anchor="start" x="190.5" y="-137.95" font-family="Sans-Serif" font-weight="bold" font-size="12.00" fill="white">Потоковая обработка данных</text>
<text text-anchor="start" x="228.75" y="-128.8" font-family="Sans-Serif" font-size="9.00" fill="white">[Container: Apache Kafka]</text>
<text text-anchor="start" x="186" y="-105.85" font-family="Sans-Serif" font-size="10.00" fill="white">Передает большие объемы данных (логи</text>
<text text-anchor="start" x="211.5" y="-95.85" font-family="Sans-Serif" font-size="10.00" fill="white">действий и т.д.) в хранилище</text>
</g>
<!-- 1bb68457355f488eb95a3d99669b0345&#45;&gt;37486d2f01eb4f1c9de480cc0c71c662 -->
<g id="edge6" class="edge">
<title>1bb68457355f488eb95a3d99669b0345&#45;&gt;37486d2f01eb4f1c9de480cc0c71c662</title>
<path fill="none" stroke="#999999" stroke-dasharray="5,2" d="M862.15,-268.4C848.14,-256.31 832.36,-244.71 816,-236.45 677.95,-166.71 498.98,-139.52 387.31,-128.97"/>
<polygon fill="#999999" stroke="#999999" points="387.83,-125.5 377.55,-128.08 387.19,-132.47 387.83,-125.5"/>
<text text-anchor="start" x="789" y="-213.32" font-family="Sans-Serif" font-size="10.00" fill="#2d3436">Переносит данные в HDFS</text>
</g>
<!-- d15e93d5d0774d1280d3089b36cfafd2 -->
<g id="node7" class="node">
<title>d15e93d5d0774d1280d3089b36cfafd2</title>
<polygon fill="#1874cd" stroke="black" points="218,-553.75 74,-553.75 74,-481.75 218,-481.75 218,-553.75"/>
<text text-anchor="start" x="96.12" y="-517.85" font-family="Sans-Serif" font-weight="bold" font-size="12.00" fill="white">Бэкенд сервисы</text>
<text text-anchor="start" x="123.5" y="-508.7" font-family="Sans-Serif" font-size="9.00" fill="white">[Container]</text>
</g>
<!-- 93162e054db74c81a6083d3dedeaf9ba&#45;&gt;d15e93d5d0774d1280d3089b36cfafd2 -->
<g id="edge3" class="edge">
<title>93162e054db74c81a6083d3dedeaf9ba&#45;&gt;d15e93d5d0774d1280d3089b36cfafd2</title>
<path fill="none" stroke="#999999" stroke-dasharray="5,2" d="M118.78,-673.29C104.11,-659.96 89.86,-643.46 82,-624.85 73.01,-603.56 82.83,-581.46 97.26,-562.97"/>
<polygon fill="#999999" stroke="#999999" points="99.91,-565.26 103.68,-555.36 94.56,-560.75 99.91,-565.26"/>
<text text-anchor="start" x="93.62" y="-615.35" font-family="Sans-Serif" font-size="10.00" fill="#2d3436">Забирает результаты</text>
<text text-anchor="start" x="82" y="-604.1" font-family="Sans-Serif" font-size="10.00" fill="#2d3436">работы сервисов, моделей</text>
</g>
<!-- d15e93d5d0774d1280d3089b36cfafd2&#45;&gt;93162e054db74c81a6083d3dedeaf9ba -->
<g id="edge2" class="edge">
<title>d15e93d5d0774d1280d3089b36cfafd2&#45;&gt;93162e054db74c81a6083d3dedeaf9ba</title>
<path fill="none" stroke="#999999" stroke-dasharray="5,2" d="M186.2,-554.04C198.89,-567.71 211.33,-584.39 218,-602.35 225.66,-623 217.93,-645.13 206.44,-663.82"/>
<polygon fill="#999999" stroke="#999999" points="203.63,-661.73 200.99,-671.99 209.45,-665.61 203.63,-661.73"/>
<text text-anchor="start" x="222" y="-609.73" font-family="Sans-Serif" font-size="10.00" fill="#2d3436">Забирает данные с фронта</text>
</g>
<!-- d15e93d5d0774d1280d3089b36cfafd2&#45;&gt;2116315e6887416cb59ef6ffb74f3f6a -->
<g id="edge7" class="edge">
<title>d15e93d5d0774d1280d3089b36cfafd2&#45;&gt;2116315e6887416cb59ef6ffb74f3f6a</title>
<path fill="none" stroke="#999999" stroke-dasharray="5,2" d="M141.09,-481.57C139.83,-459.51 141.73,-431.41 155.25,-410.65 162.15,-400.06 180.88,-387.4 202.92,-375.19"/>
<polygon fill="#999999" stroke="#999999" points="204.43,-378.35 211.57,-370.52 201.11,-372.19 204.43,-378.35"/>
<text text-anchor="start" x="156" y="-423.65" font-family="Sans-Serif" font-size="10.00" fill="#2d3436">Забирает нужные данные</text>
<text text-anchor="start" x="183" y="-412.4" font-family="Sans-Serif" font-size="10.00" fill="#2d3436">из хранилища</text>
</g>
<!-- 37486d2f01eb4f1c9de480cc0c71c662&#45;&gt;d15e93d5d0774d1280d3089b36cfafd2 -->
<g id="edge4" class="edge">
<title>37486d2f01eb4f1c9de480cc0c71c662&#45;&gt;d15e93d5d0774d1280d3089b36cfafd2</title>
<path fill="none" stroke="#999999" stroke-dasharray="5,2" d="M188.23,-159.6C155.62,-177.64 122.62,-202.82 104.25,-236.45 63.39,-311.24 96.94,-413.15 122.91,-471.24"/>
<polygon fill="#999999" stroke="#999999" points="119.66,-472.56 127.02,-480.18 126.02,-469.63 119.66,-472.56"/>
<text text-anchor="start" x="105" y="-322.17" font-family="Sans-Serif" font-size="10.00" fill="#2d3436">Переносит данные</text>
</g>
<!-- 2116315e6887416cb59ef6ffb74f3f6a&#45;&gt;37486d2f01eb4f1c9de480cc0c71c662 -->
<g id="edge5" class="edge">
<title>2116315e6887416cb59ef6ffb74f3f6a&#45;&gt;37486d2f01eb4f1c9de480cc0c71c662</title>
<path fill="none" stroke="#999999" stroke-dasharray="5,2" d="M299.97,-268.05C297,-243.98 293.52,-215.76 290.42,-190.6"/>
<polygon fill="#999999" stroke="#999999" points="293.9,-190.27 289.21,-180.78 286.96,-191.13 293.9,-190.27"/>
<text text-anchor="start" x="294" y="-218.95" font-family="Sans-Serif" font-size="10.00" fill="#2d3436">Сохраняет данные в Data</text>
<text text-anchor="start" x="343.12" y="-207.7" font-family="Sans-Serif" font-size="10.00" fill="#2d3436">Lake</text>
</g>
</g>
</svg>
