<?xml version="1.0" encoding="UTF-8" standalone="no"?>
<!DOCTYPE svg PUBLIC "-//W3C//DTD SVG 1.1//EN"
 "http://www.w3.org/Graphics/SVG/1.1/DTD/svg11.dtd">
<!-- Generated by graphviz version 2.43.0 (0)
 -->
<!-- Title: docs/c4&#45;containers Pages: 1 -->
<svg width="1024pt" height="890pt"
 viewBox="0.00 0.00 1024.00 890.00" xmlns="http://www.w3.org/2000/svg" xmlns:xlink="http://www.w3.org/1999/xlink">
<g id="graph0" class="graph" transform="scale(1 1) rotate(0) translate(144 746)">
<title>docs/c4&#45;containers</title>
<polygon fill="white" stroke="transparent" points="-144,144 -144,-746 880,-746 880,144 -144,144"/>
<text text-anchor="middle" x="368" y="-9" font-family="Sans-Serif" font-size="15.00" fill="#2d3436">docs/c4&#45;containers</text>
<g id="clust1" class="cluster">
<title>cluster_ML конвейер</title>
<polygon fill="white" stroke="#aeb6be" stroke-dasharray="5,2" points="348,-224 348,-594 566,-594 566,-224 348,-224"/>
<text text-anchor="middle" x="396.5" y="-580.4" font-family="Sans-Serif" font-size="12.00" fill="#2d3436">ML конвейер</text>
</g>
<g id="clust2" class="cluster">
<title>cluster_Онлайн кинотеатр</title>
<polygon fill="white" stroke="#aeb6be" stroke-dasharray="5,2" points="8,-33 8,-370.5 340,-370.5 340,-33 8,-33"/>
<text text-anchor="middle" x="75" y="-356.9" font-family="Sans-Serif" font-size="12.00" fill="#2d3436">Онлайн кинотеатр</text>
</g>
<!-- 994c08aa3de14f4b9260c0fb50250826 -->
<g id="node1" class="node">
<title>994c08aa3de14f4b9260c0fb50250826</title>
<path fill="#104e8b" stroke="black" d="M206,-535.5C206,-535.5 86,-535.5 86,-535.5 80,-535.5 74,-529.5 74,-523.5 74,-523.5 74,-475.5 74,-475.5 74,-469.5 80,-463.5 86,-463.5 86,-463.5 206,-463.5 206,-463.5 212,-463.5 218,-469.5 218,-475.5 218,-475.5 218,-523.5 218,-523.5 218,-529.5 212,-535.5 206,-535.5"/>
<text text-anchor="start" x="97.5" y="-501.4" font-family="Sans-Serif" font-weight="bold" font-size="12.00" fill="white">Пользователь</text>
<text text-anchor="start" x="127" y="-491.8" font-family="Sans-Serif" font-size="9.00" fill="white">[Person]</text>
</g>
<!-- b4db8a62b643408eaaccde784866ef7a -->
<g id="node4" class="node">
<title>b4db8a62b643408eaaccde784866ef7a</title>
<polygon fill="#1874cd" stroke="black" points="218,-333.5 74,-333.5 74,-261.5 218,-261.5 218,-333.5"/>
<text text-anchor="start" x="81.5" y="-299.4" font-family="Sans-Serif" font-weight="bold" font-size="12.00" fill="white">Фронтенд сервиса</text>
<text text-anchor="start" x="120" y="-289.8" font-family="Sans-Serif" font-size="9.00" fill="white">[Container]</text>
</g>
<!-- 994c08aa3de14f4b9260c0fb50250826&#45;&gt;b4db8a62b643408eaaccde784866ef7a -->
<g id="edge4" class="edge">
<title>994c08aa3de14f4b9260c0fb50250826&#45;&gt;b4db8a62b643408eaaccde784866ef7a</title>
<path fill="none" stroke="#999999" stroke-dasharray="5,2" d="M146,-463.2C146,-430.03 146,-380.22 146,-344.06"/>
<polygon fill="#999999" stroke="#999999" points="149.5,-343.78 146,-333.78 142.5,-343.78 149.5,-343.78"/>
<text text-anchor="start" x="146" y="-401.5" font-family="Sans-Serif" font-size="10.00" fill="#2d3436">Использует возможности</text>
<text text-anchor="start" x="161.5" y="-390.5" font-family="Sans-Serif" font-size="10.00" fill="#2d3436">онлайн&#45;кинотеатра</text>
</g>
<!-- f41f9a426a044f6a81e292b7c82623fe -->
<g id="node2" class="node">
<title>f41f9a426a044f6a81e292b7c82623fe</title>
<path fill="#1874cd" stroke="black" d="M550.5,-344.55C550.5,-350.31 508.59,-355 457,-355 405.41,-355 363.5,-350.31 363.5,-344.55 363.5,-344.55 363.5,-250.45 363.5,-250.45 363.5,-244.69 405.41,-240 457,-240 508.59,-240 550.5,-244.69 550.5,-250.45 550.5,-250.45 550.5,-344.55 550.5,-344.55"/>
<path fill="none" stroke="black" d="M550.5,-344.55C550.5,-338.78 508.59,-334.09 457,-334.09 405.41,-334.09 363.5,-338.78 363.5,-344.55"/>
<text text-anchor="start" x="347.5" y="-307.9" font-family="Sans-Serif" font-weight="bold" font-size="12.00" fill="white">Источник данных для моделей</text>
<text text-anchor="start" x="432" y="-298.3" font-family="Sans-Serif" font-size="9.00" fill="white">[Database]</text>
<text text-anchor="start" x="372.5" y="-275.5" font-family="Sans-Serif" font-size="10.00" fill="white">Данные в структурированном и</text>
<text text-anchor="start" x="374" y="-265.5" font-family="Sans-Serif" font-size="10.00" fill="white">быстродоступном формате для</text>
<text text-anchor="start" x="368.5" y="-255.5" font-family="Sans-Serif" font-size="10.00" fill="white">обучения/инференса ML моделей</text>
</g>
<!-- bc3e7fac074f455bb53f93e2a5aaa9f0 -->
<g id="node5" class="node">
<title>bc3e7fac074f455bb53f93e2a5aaa9f0</title>
<polygon fill="#1874cd" stroke="black" points="317.5,-164 130.5,-164 130.5,-49 317.5,-49 317.5,-164"/>
<text text-anchor="start" x="169.5" y="-124.9" font-family="Sans-Serif" font-weight="bold" font-size="12.00" fill="white">Бэкенд сервиса</text>
<text text-anchor="start" x="198" y="-115.3" font-family="Sans-Serif" font-size="9.00" fill="white">[Container]</text>
<text text-anchor="start" x="119.5" y="-92.5" font-family="Sans-Serif" font-size="10.00" fill="white">Обрабатывает запросы пользователя и</text>
<text text-anchor="start" x="130.5" y="-82.5" font-family="Sans-Serif" font-size="10.00" fill="white">возвращает ответы микросервисов</text>
</g>
<!-- f41f9a426a044f6a81e292b7c82623fe&#45;&gt;bc3e7fac074f455bb53f93e2a5aaa9f0 -->
<g id="edge3" class="edge">
<title>f41f9a426a044f6a81e292b7c82623fe&#45;&gt;bc3e7fac074f455bb53f93e2a5aaa9f0</title>
<path fill="none" stroke="#999999" stroke-dasharray="5,2" d="M389.29,-241.58C361.91,-219.36 330.13,-193.59 301.79,-170.6"/>
<polygon fill="#999999" stroke="#999999" points="303.87,-167.78 293.9,-164.2 299.46,-173.22 303.87,-167.78"/>
<text text-anchor="start" x="347" y="-205" font-family="Sans-Serif" font-size="10.00" fill="#2d3436">Забирает данные для</text>
<text text-anchor="start" x="382" y="-194" font-family="Sans-Serif" font-size="10.00" fill="#2d3436">моделей</text>
</g>
<!-- 4186828066b34ea39b214b8532441e21 -->
<g id="node3" class="node">
<title>4186828066b34ea39b214b8532441e21</title>
<polygon fill="#1874cd" stroke="black" points="550.5,-557 363.5,-557 363.5,-442 550.5,-442 550.5,-557"/>
<text text-anchor="start" x="422" y="-517.9" font-family="Sans-Serif" font-weight="bold" font-size="12.00" fill="white">ML сервис</text>
<text text-anchor="start" x="431" y="-508.3" font-family="Sans-Serif" font-size="9.00" fill="white">[Container]</text>
<text text-anchor="start" x="354.5" y="-485.5" font-family="Sans-Serif" font-size="10.00" fill="white">Сервис для обучения/расчета моделей</text>
</g>
<!-- 4186828066b34ea39b214b8532441e21&#45;&gt;f41f9a426a044f6a81e292b7c82623fe -->
<g id="edge2" class="edge">
<title>4186828066b34ea39b214b8532441e21&#45;&gt;f41f9a426a044f6a81e292b7c82623fe</title>
<path fill="none" stroke="#999999" stroke-dasharray="5,2" d="M457,-441.99C457,-418.13 457,-390.17 457,-365.3"/>
<polygon fill="#999999" stroke="#999999" points="460.5,-365.22 457,-355.22 453.5,-365.22 460.5,-365.22"/>
<text text-anchor="start" x="467" y="-407" font-family="Sans-Serif" font-size="10.00" fill="#2d3436">Сбор данных для</text>
<text text-anchor="start" x="457" y="-396" font-family="Sans-Serif" font-size="10.00" fill="#2d3436">обучения/инференса</text>
<text text-anchor="start" x="489.5" y="-385" font-family="Sans-Serif" font-size="10.00" fill="#2d3436">моделей</text>
</g>
<!-- 4186828066b34ea39b214b8532441e21&#45;&gt;bc3e7fac074f455bb53f93e2a5aaa9f0 -->
<g id="edge1" class="edge">
<title>4186828066b34ea39b214b8532441e21&#45;&gt;bc3e7fac074f455bb53f93e2a5aaa9f0</title>
<path fill="none" stroke="#999999" stroke-dasharray="5,2" d="M558.17,-441.6C566.02,-433.63 572.87,-424.78 578,-415 599.49,-374.06 666.41,-350.04 572,-224 513.18,-145.47 399.19,-119.26 317.7,-110.84"/>
<polygon fill="#999999" stroke="#999999" points="555.56,-439.25 550.71,-448.67 560.38,-444.33 555.56,-439.25"/>
<text text-anchor="start" x="621" y="-300.5" font-family="Sans-Serif" font-size="10.00" fill="#2d3436">Забирает результаты</text>
<text text-anchor="start" x="634.5" y="-289.5" font-family="Sans-Serif" font-size="10.00" fill="#2d3436">работы моделей</text>
</g>
<!-- b4db8a62b643408eaaccde784866ef7a&#45;&gt;bc3e7fac074f455bb53f93e2a5aaa9f0 -->
<g id="edge6" class="edge">
<title>b4db8a62b643408eaaccde784866ef7a&#45;&gt;bc3e7fac074f455bb53f93e2a5aaa9f0</title>
<path fill="none" stroke="#999999" stroke-dasharray="5,2" d="M95.27,-261.49C72.78,-241.47 54.35,-215.53 69,-191 81.27,-170.45 100.54,-154.66 121.38,-142.64"/>
<polygon fill="#999999" stroke="#999999" points="123.29,-145.58 130.39,-137.71 119.93,-139.44 123.29,-145.58"/>
<text text-anchor="start" x="69" y="-205" font-family="Sans-Serif" font-size="10.00" fill="#2d3436">Использует ответы</text>
<text text-anchor="start" x="80.5" y="-194" font-family="Sans-Serif" font-size="10.00" fill="#2d3436">микросервисов</text>
</g>
<!-- bc3e7fac074f455bb53f93e2a5aaa9f0&#45;&gt;b4db8a62b643408eaaccde784866ef7a -->
<g id="edge5" class="edge">
<title>bc3e7fac074f455bb53f93e2a5aaa9f0&#45;&gt;b4db8a62b643408eaaccde784866ef7a</title>
<path fill="none" stroke="#999999" stroke-dasharray="5,2" d="M200.55,-164.32C188.95,-192.44 175.15,-225.88 164.33,-252.09"/>
<polygon fill="#999999" stroke="#999999" points="161.07,-250.81 160.49,-261.39 167.54,-253.48 161.07,-250.81"/>
<text text-anchor="start" x="187" y="-205" font-family="Sans-Serif" font-size="10.00" fill="#2d3436">Принимает запросы</text>
<text text-anchor="start" x="203" y="-194" font-family="Sans-Serif" font-size="10.00" fill="#2d3436">пользователя</text>
</g>
</g>
</svg>
