<?xml version="1.0" encoding="UTF-8" standalone="no"?>
<!DOCTYPE svg PUBLIC "-//W3C//DTD SVG 1.1//EN"
 "http://www.w3.org/Graphics/SVG/1.1/DTD/svg11.dtd">
<!-- Generated by graphviz version 2.43.0 (0)
 -->
<!-- Title: docs/c4&#45;components Pages: 1 -->
<svg width="1360pt" height="1246pt"
 viewBox="0.00 0.00 1360.00 1246.00" xmlns="http://www.w3.org/2000/svg" xmlns:xlink="http://www.w3.org/1999/xlink">
<g id="graph0" class="graph" transform="scale(1 1) rotate(0) translate(144 1102)">
<title>docs/c4&#45;components</title>
<polygon fill="white" stroke="transparent" points="-144,144 -144,-1102 1216,-1102 1216,144 -144,144"/>
<text text-anchor="middle" x="536" y="-9" font-family="Sans-Serif" font-size="15.00" fill="#2d3436">docs/c4&#45;components</text>
<g id="clust1" class="cluster">
<title>cluster_ML конвейер</title>
<polygon fill="white" stroke="#aeb6be" stroke-dasharray="5,2" points="453,-237 453,-840 1064,-840 1064,-237 453,-237"/>
<text text-anchor="middle" x="501.5" y="-826.4" font-family="Sans-Serif" font-size="12.00" fill="#2d3436">ML конвейер</text>
</g>
<g id="clust2" class="cluster">
<title>cluster_ML сервис</title>
<polygon fill="white" stroke="#aeb6be" stroke-dasharray="5,2" points="469,-253 469,-803 846,-803 846,-253 469,-253"/>
<text text-anchor="middle" x="509" y="-789.4" font-family="Sans-Serif" font-size="12.00" fill="#2d3436">ML сервис</text>
</g>
<g id="clust3" class="cluster">
<title>cluster_Онлайн кинотеатр</title>
<polygon fill="white" stroke="#aeb6be" stroke-dasharray="5,2" points="8,-33 8,-781.5 445,-781.5 445,-33 8,-33"/>
<text text-anchor="middle" x="75" y="-767.9" font-family="Sans-Serif" font-size="12.00" fill="#2d3436">Онлайн кинотеатр</text>
</g>
<g id="clust4" class="cluster">
<title>cluster_Бэкенд сервиса</title>
<polygon fill="white" stroke="#aeb6be" stroke-dasharray="5,2" points="24,-49 24,-590.5 429,-590.5 429,-49 24,-49"/>
<text text-anchor="middle" x="82" y="-576.9" font-family="Sans-Serif" font-size="12.00" fill="#2d3436">Бэкенд сервиса</text>
</g>
<!-- cdfc8f9f1ec247f9aaad61663581398c -->
<g id="node1" class="node">
<title>cdfc8f9f1ec247f9aaad61663581398c</title>
<path fill="#104e8b" stroke="black" d="M236,-958C236,-958 116,-958 116,-958 110,-958 104,-952 104,-946 104,-946 104,-898 104,-898 104,-892 110,-886 116,-886 116,-886 236,-886 236,-886 242,-886 248,-892 248,-898 248,-898 248,-946 248,-946 248,-952 242,-958 236,-958"/>
<text text-anchor="start" x="127.5" y="-923.9" font-family="Sans-Serif" font-weight="bold" font-size="12.00" fill="white">Пользователь</text>
<text text-anchor="start" x="157" y="-914.3" font-family="Sans-Serif" font-size="9.00" fill="white">[Person]</text>
</g>
<!-- ee959b2a17aa4347bb05292ccce81978 -->
<g id="node6" class="node">
<title>ee959b2a17aa4347bb05292ccce81978</title>
<polygon fill="#1874cd" stroke="black" points="248,-744.5 104,-744.5 104,-672.5 248,-672.5 248,-744.5"/>
<text text-anchor="start" x="111.5" y="-710.4" font-family="Sans-Serif" font-weight="bold" font-size="12.00" fill="white">Фронтенд сервиса</text>
<text text-anchor="start" x="150" y="-700.8" font-family="Sans-Serif" font-size="9.00" fill="white">[Container]</text>
</g>
<!-- cdfc8f9f1ec247f9aaad61663581398c&#45;&gt;ee959b2a17aa4347bb05292ccce81978 -->
<g id="edge1" class="edge">
<title>cdfc8f9f1ec247f9aaad61663581398c&#45;&gt;ee959b2a17aa4347bb05292ccce81978</title>
<path fill="none" stroke="#999999" stroke-dasharray="5,2" d="M176,-885.6C176,-849.65 176,-793.86 176,-754.73"/>
<polygon fill="#999999" stroke="#999999" points="179.5,-754.66 176,-744.66 172.5,-754.66 179.5,-754.66"/>
<text text-anchor="start" x="176" y="-851" font-family="Sans-Serif" font-size="10.00" fill="#2d3436">Использует фронтенд</text>
</g>
<!-- 94c5e7d5d6c64670aade4044983cb231 -->
<g id="node2" class="node">
<title>94c5e7d5d6c64670aade4044983cb231</title>
<polygon fill="#1874cd" stroke="black" points="738.5,-575 551.5,-575 551.5,-460 738.5,-460 738.5,-575"/>
<text text-anchor="start" x="581.5" y="-535.9" font-family="Sans-Serif" font-weight="bold" font-size="12.00" fill="white">Spark Applications</text>
<text text-anchor="start" x="603" y="-526.3" font-family="Sans-Serif" font-size="9.00" fill="white">[Container: Spark]</text>
<text text-anchor="start" x="593.5" y="-503.5" font-family="Sans-Serif" font-size="10.00" fill="white">Запуск ML моделей</text>
</g>
<!-- 7c545a1e59b24c4eabf12e8c9670d7d5 -->
<g id="node4" class="node">
<title>7c545a1e59b24c4eabf12e8c9670d7d5</title>
<polygon fill="#1874cd" stroke="black" points="738.5,-384 551.5,-384 551.5,-269 738.5,-269 738.5,-384"/>
<text text-anchor="start" x="622" y="-344.9" font-family="Sans-Serif" font-weight="bold" font-size="12.00" fill="white">mlflow</text>
<text text-anchor="start" x="619" y="-335.3" font-family="Sans-Serif" font-size="9.00" fill="white">[Container]</text>
<text text-anchor="start" x="564" y="-312.5" font-family="Sans-Serif" font-size="10.00" fill="white">Хранение ML моделей, метрик</text>
</g>
<!-- 94c5e7d5d6c64670aade4044983cb231&#45;&gt;7c545a1e59b24c4eabf12e8c9670d7d5 -->
<g id="edge11" class="edge">
<title>94c5e7d5d6c64670aade4044983cb231&#45;&gt;7c545a1e59b24c4eabf12e8c9670d7d5</title>
<path fill="none" stroke="#999999" stroke-dasharray="5,2" d="M551.47,-470.52C538.42,-460.02 526.82,-447.57 519,-433 506.2,-409.17 520.17,-388.51 542.83,-371.96"/>
<polygon fill="#999999" stroke="#999999" points="544.89,-374.79 551.18,-366.27 540.95,-369.01 544.89,-374.79"/>
<text text-anchor="start" x="519" y="-425" font-family="Sans-Serif" font-size="10.00" fill="#2d3436">Использует ML модели из</text>
<text text-anchor="start" x="570.5" y="-414" font-family="Sans-Serif" font-size="10.00" fill="#2d3436">mlflow</text>
</g>
<!-- dd3dfb14f820444bb5027bdd5af0b965 -->
<g id="node5" class="node">
<title>dd3dfb14f820444bb5027bdd5af0b965</title>
<path fill="#1874cd" stroke="black" d="M1048.5,-373.55C1048.5,-379.31 1006.59,-384 955,-384 903.41,-384 861.5,-379.31 861.5,-373.55 861.5,-373.55 861.5,-279.45 861.5,-279.45 861.5,-273.69 903.41,-269 955,-269 1006.59,-269 1048.5,-273.69 1048.5,-279.45 1048.5,-279.45 1048.5,-373.55 1048.5,-373.55"/>
<path fill="none" stroke="black" d="M1048.5,-373.55C1048.5,-367.78 1006.59,-363.09 955,-363.09 903.41,-363.09 861.5,-367.78 861.5,-373.55"/>
<text text-anchor="start" x="849.5" y="-336.9" font-family="Sans-Serif" font-weight="bold" font-size="12.00" fill="white">Витрина данных для моделей</text>
<text text-anchor="start" x="914.5" y="-327.3" font-family="Sans-Serif" font-size="9.00" fill="white">[Database: HDFS]</text>
<text text-anchor="start" x="870.5" y="-304.5" font-family="Sans-Serif" font-size="10.00" fill="white">Данные в структурированном и</text>
<text text-anchor="start" x="872" y="-294.5" font-family="Sans-Serif" font-size="10.00" fill="white">быстродоступном формате для</text>
<text text-anchor="start" x="866.5" y="-284.5" font-family="Sans-Serif" font-size="10.00" fill="white">обучения/инференса ML моделей</text>
</g>
<!-- 94c5e7d5d6c64670aade4044983cb231&#45;&gt;dd3dfb14f820444bb5027bdd5af0b965 -->
<g id="edge8" class="edge">
<title>94c5e7d5d6c64670aade4044983cb231&#45;&gt;dd3dfb14f820444bb5027bdd5af0b965</title>
<path fill="none" stroke="#999999" stroke-dasharray="5,2" d="M747.65,-459.7C762.95,-450.92 778.45,-441.83 793,-433 819.97,-416.63 848.98,-398.06 874.89,-381.11"/>
<polygon fill="#999999" stroke="#999999" points="745.63,-456.83 738.68,-464.83 749.1,-462.91 745.63,-456.83"/>
<text text-anchor="start" x="824" y="-425" font-family="Sans-Serif" font-size="10.00" fill="#2d3436">Использует данные из</text>
<text text-anchor="start" x="861" y="-414" font-family="Sans-Serif" font-size="10.00" fill="#2d3436">витрины</text>
</g>
<!-- 92489e46b2344a90955bd5c7a548fcff -->
<g id="node9" class="node">
<title>92489e46b2344a90955bd5c7a548fcff</title>
<path fill="#1874cd" stroke="black" d="M413.5,-373.55C413.5,-379.31 371.59,-384 320,-384 268.41,-384 226.5,-379.31 226.5,-373.55 226.5,-373.55 226.5,-279.45 226.5,-279.45 226.5,-273.69 268.41,-269 320,-269 371.59,-269 413.5,-273.69 413.5,-279.45 413.5,-279.45 413.5,-373.55 413.5,-373.55"/>
<path fill="none" stroke="black" d="M413.5,-373.55C413.5,-367.78 371.59,-363.09 320,-363.09 268.41,-363.09 226.5,-367.78 226.5,-373.55"/>
<text text-anchor="start" x="288" y="-325.02" font-family="Sans-Serif" font-weight="bold" font-size="12.00" fill="white">DataLake</text>
<text text-anchor="start" x="242.5" y="-315.42" font-family="Sans-Serif" font-size="9.00" fill="white">[Database: Databricks Lakehouse]</text>
<text text-anchor="start" x="212" y="-292.62" font-family="Sans-Serif" font-size="10.00" fill="white">Данные сервиса в неструктурированном</text>
<text text-anchor="start" x="297" y="-282.62" font-family="Sans-Serif" font-size="10.00" fill="white">формате</text>
</g>
<!-- 94c5e7d5d6c64670aade4044983cb231&#45;&gt;92489e46b2344a90955bd5c7a548fcff -->
<g id="edge12" class="edge">
<title>94c5e7d5d6c64670aade4044983cb231&#45;&gt;92489e46b2344a90955bd5c7a548fcff</title>
<path fill="none" stroke="#999999" stroke-dasharray="5,2" d="M541.48,-488.78C470.76,-469.13 387.51,-444.34 374,-433 358.71,-420.17 347.26,-401.91 338.93,-384.19"/>
<polygon fill="#999999" stroke="#999999" points="540.79,-492.22 551.36,-491.51 542.66,-485.47 540.79,-492.22"/>
<text text-anchor="start" x="374" y="-425" font-family="Sans-Serif" font-size="10.00" fill="#2d3436">Сохраняет результаты в</text>
<text text-anchor="start" x="416" y="-414" font-family="Sans-Serif" font-size="10.00" fill="#2d3436">DataLake</text>
</g>
<!-- 371e3ed7b6424bd0a666dfca432fa2c2 -->
<g id="node3" class="node">
<title>371e3ed7b6424bd0a666dfca432fa2c2</title>
<polygon fill="#1874cd" stroke="black" points="738.5,-766 551.5,-766 551.5,-651 738.5,-651 738.5,-766"/>
<text text-anchor="start" x="621" y="-726.9" font-family="Sans-Serif" font-weight="bold" font-size="12.00" fill="white">Airflow</text>
<text text-anchor="start" x="619" y="-717.3" font-family="Sans-Serif" font-size="9.00" fill="white">[Container]</text>
<text text-anchor="start" x="572.5" y="-694.5" font-family="Sans-Serif" font-size="10.00" fill="white">Оркестрация ML конвейера</text>
</g>
<!-- 371e3ed7b6424bd0a666dfca432fa2c2&#45;&gt;94c5e7d5d6c64670aade4044983cb231 -->
<g id="edge9" class="edge">
<title>371e3ed7b6424bd0a666dfca432fa2c2&#45;&gt;94c5e7d5d6c64670aade4044983cb231</title>
<path fill="none" stroke="#999999" stroke-dasharray="5,2" d="M645,-650.79C645,-630.14 645,-606.61 645,-585.17"/>
<polygon fill="#999999" stroke="#999999" points="648.5,-585.17 645,-575.17 641.5,-585.17 648.5,-585.17"/>
<text text-anchor="start" x="645" y="-616" font-family="Sans-Serif" font-size="10.00" fill="#2d3436">Запускает spark</text>
<text text-anchor="start" x="654" y="-605" font-family="Sans-Serif" font-size="10.00" fill="#2d3436">приложения</text>
</g>
<!-- 7c545a1e59b24c4eabf12e8c9670d7d5&#45;&gt;94c5e7d5d6c64670aade4044983cb231 -->
<g id="edge10" class="edge">
<title>7c545a1e59b24c4eabf12e8c9670d7d5&#45;&gt;94c5e7d5d6c64670aade4044983cb231</title>
<path fill="none" stroke="#999999" stroke-dasharray="5,2" d="M663.09,-384.19C666.25,-399.92 667.97,-417.06 666,-433 665.32,-438.47 664.4,-444.1 663.33,-449.72"/>
<polygon fill="#999999" stroke="#999999" points="659.84,-449.31 661.24,-459.81 666.7,-450.73 659.84,-449.31"/>
<text text-anchor="start" x="666" y="-425" font-family="Sans-Serif" font-size="10.00" fill="#2d3436">Сохраняет обученные</text>
<text text-anchor="start" x="704.5" y="-414" font-family="Sans-Serif" font-size="10.00" fill="#2d3436">модели</text>
</g>
<!-- 813b7f6e6677440a9dfe71ba2f583076 -->
<g id="node8" class="node">
<title>813b7f6e6677440a9dfe71ba2f583076</title>
<polygon fill="#1874cd" stroke="black" points="371.5,-180 184.5,-180 184.5,-65 371.5,-65 371.5,-180"/>
<text text-anchor="start" x="174" y="-140.9" font-family="Sans-Serif" font-weight="bold" font-size="12.00" fill="white">Потоковая обработка данных</text>
<text text-anchor="start" x="218.5" y="-131.3" font-family="Sans-Serif" font-size="9.00" fill="white">[Container: Apache Kafka]</text>
<text text-anchor="start" x="168.5" y="-108.5" font-family="Sans-Serif" font-size="10.00" fill="white">Передает большие объемы данных (логи</text>
<text text-anchor="start" x="198.5" y="-98.5" font-family="Sans-Serif" font-size="10.00" fill="white">действий и т.д.) в хранилище</text>
</g>
<!-- dd3dfb14f820444bb5027bdd5af0b965&#45;&gt;813b7f6e6677440a9dfe71ba2f583076 -->
<g id="edge6" class="edge">
<title>dd3dfb14f820444bb5027bdd5af0b965&#45;&gt;813b7f6e6677440a9dfe71ba2f583076</title>
<path fill="none" stroke="#999999" stroke-dasharray="5,2" d="M902.11,-268.95C888.17,-256.79 872.41,-245.16 856,-237 702.43,-160.59 501.96,-135.58 381.98,-127.42"/>
<polygon fill="#999999" stroke="#999999" points="381.9,-123.91 371.7,-126.75 381.45,-130.9 381.9,-123.91"/>
<text text-anchor="start" x="827" y="-215.5" font-family="Sans-Serif" font-size="10.00" fill="#2d3436">Переносит данные в HDFS</text>
</g>
<!-- fde43727379b4a7f8251421b7b7b693a -->
<g id="node7" class="node">
<title>fde43727379b4a7f8251421b7b7b693a</title>
<polygon fill="#1874cd" stroke="black" points="210,-553.5 66,-553.5 66,-481.5 210,-481.5 210,-553.5"/>
<text text-anchor="start" x="82" y="-519.4" font-family="Sans-Serif" font-weight="bold" font-size="12.00" fill="white">Бэкенд сервисы</text>
<text text-anchor="start" x="112" y="-509.8" font-family="Sans-Serif" font-size="9.00" fill="white">[Container]</text>
</g>
<!-- ee959b2a17aa4347bb05292ccce81978&#45;&gt;fde43727379b4a7f8251421b7b7b693a -->
<g id="edge3" class="edge">
<title>ee959b2a17aa4347bb05292ccce81978&#45;&gt;fde43727379b4a7f8251421b7b7b693a</title>
<path fill="none" stroke="#999999" stroke-dasharray="5,2" d="M114.25,-672.46C97.41,-659.57 81.26,-643.31 72,-624 61.78,-602.69 72.34,-580.33 87.79,-561.71"/>
<polygon fill="#999999" stroke="#999999" points="90.64,-563.78 94.67,-553.97 85.41,-559.13 90.64,-563.78"/>
<text text-anchor="start" x="85" y="-616" font-family="Sans-Serif" font-size="10.00" fill="#2d3436">Забирает результаты</text>
<text text-anchor="start" x="72" y="-605" font-family="Sans-Serif" font-size="10.00" fill="#2d3436">работы сервисов, моделей</text>
</g>
<!-- fde43727379b4a7f8251421b7b7b693a&#45;&gt;ee959b2a17aa4347bb05292ccce81978 -->
<g id="edge2" class="edge">
<title>fde43727379b4a7f8251421b7b7b693a&#45;&gt;ee959b2a17aa4347bb05292ccce81978</title>
<path fill="none" stroke="#999999" stroke-dasharray="5,2" d="M186.66,-553.71C201.16,-567.03 215.24,-583.5 223,-602 231.54,-622.36 224.04,-644.73 212.71,-663.61"/>
<polygon fill="#999999" stroke="#999999" points="209.76,-661.72 207.28,-672.02 215.64,-665.52 209.76,-661.72"/>
<text text-anchor="start" x="227" y="-610.5" font-family="Sans-Serif" font-size="10.00" fill="#2d3436">Забирает данные с фронта</text>
</g>
<!-- fde43727379b4a7f8251421b7b7b693a&#45;&gt;92489e46b2344a90955bd5c7a548fcff -->
<g id="edge7" class="edge">
<title>fde43727379b4a7f8251421b7b7b693a&#45;&gt;92489e46b2344a90955bd5c7a548fcff</title>
<path fill="none" stroke="#999999" stroke-dasharray="5,2" d="M131.03,-481.38C128.63,-459.38 129.36,-431.44 143,-411 145.63,-407.07 179.43,-390.77 216.81,-373.6"/>
<polygon fill="#999999" stroke="#999999" points="218.74,-376.57 226.37,-369.22 215.82,-370.2 218.74,-376.57"/>
<text text-anchor="start" x="143" y="-425" font-family="Sans-Serif" font-size="10.00" fill="#2d3436">Забирает нужные данные</text>
<text text-anchor="start" x="174.5" y="-414" font-family="Sans-Serif" font-size="10.00" fill="#2d3436">из хранилища</text>
</g>
<!-- 813b7f6e6677440a9dfe71ba2f583076&#45;&gt;fde43727379b4a7f8251421b7b7b693a -->
<g id="edge4" class="edge">
<title>813b7f6e6677440a9dfe71ba2f583076&#45;&gt;fde43727379b4a7f8251421b7b7b693a</title>
<path fill="none" stroke="#999999" stroke-dasharray="5,2" d="M184.41,-162.3C153.41,-180.19 122.41,-204.76 105,-237 64.62,-311.78 94.35,-413.97 117.55,-471.81"/>
<polygon fill="#999999" stroke="#999999" points="114.45,-473.47 121.5,-481.38 120.93,-470.8 114.45,-473.47"/>
<text text-anchor="start" x="105" y="-324" font-family="Sans-Serif" font-size="10.00" fill="#2d3436">Переносит данные</text>
</g>
<!-- 92489e46b2344a90955bd5c7a548fcff&#45;&gt;813b7f6e6677440a9dfe71ba2f583076 -->
<g id="edge5" class="edge">
<title>92489e46b2344a90955bd5c7a548fcff&#45;&gt;813b7f6e6677440a9dfe71ba2f583076</title>
<path fill="none" stroke="#999999" stroke-dasharray="5,2" d="M308.24,-268.96C303.15,-244.44 297.14,-215.55 291.83,-190"/>
<polygon fill="#999999" stroke="#999999" points="295.21,-189.1 289.75,-180.02 288.36,-190.53 295.21,-189.1"/>
<text text-anchor="start" x="299" y="-221" font-family="Sans-Serif" font-size="10.00" fill="#2d3436">Сохраняет данные в Data</text>
<text text-anchor="start" x="355" y="-210" font-family="Sans-Serif" font-size="10.00" fill="#2d3436">Lake</text>
</g>
</g>
</svg>
