<?xml version="1.0" encoding="UTF-8" standalone="no"?>
<!DOCTYPE svg PUBLIC "-//W3C//DTD SVG 1.1//EN"
 "http://www.w3.org/Graphics/SVG/1.1/DTD/svg11.dtd">
<!-- Generated by graphviz version 9.0.0 (20230911.1827)
 -->
<!-- Title: docs/c4&#45;context Pages: 1 -->
<svg width="514pt" height="778pt"
 viewBox="0.00 0.00 513.83 778.40" xmlns="http://www.w3.org/2000/svg" xmlns:xlink="http://www.w3.org/1999/xlink">
<g id="graph0" class="graph" transform="scale(1 1) rotate(0) translate(144 634.4)">
<title>docs/c4&#45;context</title>
<polygon fill="white" stroke="none" points="-144,144 -144,-634.4 369.83,-634.4 369.83,144 -144,144"/>
<text text-anchor="middle" x="112.92" y="-5.5" font-family="Sans-Serif" font-size="15.00" fill="#2d3436">docs/c4&#45;context</text>
<!-- 62ffc82575f9475aa0eabc6e7d530537 -->
<g id="node1" class="node">
<title>62ffc82575f9475aa0eabc6e7d530537</title>
<path fill="#104e8b" stroke="black" d="M154.08,-490.4C154.08,-490.4 34.08,-490.4 34.08,-490.4 28.08,-490.4 22.08,-484.4 22.08,-478.4 22.08,-478.4 22.08,-430.4 22.08,-430.4 22.08,-424.4 28.08,-418.4 34.08,-418.4 34.08,-418.4 154.08,-418.4 154.08,-418.4 160.08,-418.4 166.08,-424.4 166.08,-430.4 166.08,-430.4 166.08,-478.4 166.08,-478.4 166.08,-484.4 160.08,-490.4 154.08,-490.4"/>
<text text-anchor="start" x="51.33" y="-454.5" font-family="Sans-Serif" font-weight="bold" font-size="12.00" fill="white">Пользователь</text>
<text text-anchor="start" x="77.21" y="-445.35" font-family="Sans-Serif" font-size="9.00" fill="white">[Person]</text>
</g>
<!-- 3d129aa328bf42b89303d388832ded41 -->
<g id="node3" class="node">
<title>3d129aa328bf42b89303d388832ded41</title>
<polygon fill="#999999" stroke="black" points="187.68,-341.9 0.48,-341.9 0.48,-226.7 187.68,-226.7 187.68,-341.9"/>
<text text-anchor="start" x="38.21" y="-300.9" font-family="Sans-Serif" font-weight="bold" font-size="12.00" fill="white">Онлайн кинотеатр</text>
<text text-anchor="start" x="58.83" y="-291.75" font-family="Sans-Serif" font-size="9.00" fill="white">[External System]</text>
<text text-anchor="start" x="5.21" y="-268.8" font-family="Sans-Serif" font-size="10.00" fill="white">ПО, данные, инфраструктура онлайн&#45;</text>
<text text-anchor="start" x="67.46" y="-258.8" font-family="Sans-Serif" font-size="10.00" fill="white">кинотеатра</text>
</g>
<!-- 62ffc82575f9475aa0eabc6e7d530537&#45;&gt;3d129aa328bf42b89303d388832ded41 -->
<g id="edge3" class="edge">
<title>62ffc82575f9475aa0eabc6e7d530537&#45;&gt;3d129aa328bf42b89303d388832ded41</title>
<path fill="none" stroke="#999999" stroke-dasharray="5,2" d="M94.08,-418.16C94.08,-399.47 94.08,-375.85 94.08,-353.72"/>
<polygon fill="#999999" stroke="#999999" points="97.58,-353.84 94.08,-343.84 90.58,-353.84 97.58,-353.84"/>
<text text-anchor="start" x="94.08" y="-381.9" font-family="Sans-Serif" font-size="10.00" fill="#2d3436">Использует возможности</text>
<text text-anchor="start" x="109.83" y="-370.65" font-family="Sans-Serif" font-size="10.00" fill="#2d3436">онлайн&#45;кинотеатра</text>
</g>
<!-- 088bca409bd340d4a89e7dfbfd4025d0 -->
<g id="node2" class="node">
<title>088bca409bd340d4a89e7dfbfd4025d0</title>
<polygon fill="#104e8b" stroke="black" points="187.68,-138.95 0.48,-138.95 0.48,-23.75 187.68,-23.75 187.68,-138.95"/>
<text text-anchor="start" x="54.71" y="-97.95" font-family="Sans-Serif" font-weight="bold" font-size="12.00" fill="white">ML конвейер</text>
<text text-anchor="start" x="76.83" y="-88.8" font-family="Sans-Serif" font-size="9.00" fill="white">[System]</text>
<text text-anchor="start" x="-0.42" y="-65.85" font-family="Sans-Serif" font-size="10.00" fill="white">Позволяет продуктивизировать модели</text>
</g>
<!-- 088bca409bd340d4a89e7dfbfd4025d0&#45;&gt;3d129aa328bf42b89303d388832ded41 -->
<g id="edge1" class="edge">
<title>088bca409bd340d4a89e7dfbfd4025d0&#45;&gt;3d129aa328bf42b89303d388832ded41</title>
<path fill="none" stroke="#999999" stroke-dasharray="5,2" d="M120.51,-139.02C123.64,-147.86 126.34,-157.03 128.08,-165.95 131.24,-182.1 129.36,-199.24 125.21,-215.29"/>
<polygon fill="#999999" stroke="#999999" points="121.89,-214.17 122.43,-224.75 128.61,-216.14 121.89,-214.17"/>
<text text-anchor="start" x="130.96" y="-190.2" font-family="Sans-Serif" font-size="10.00" fill="#2d3436">Использует данные</text>
<text text-anchor="start" x="140.71" y="-178.95" font-family="Sans-Serif" font-size="10.00" fill="#2d3436">кинотеатра для</text>
<text text-anchor="start" x="129.08" y="-167.7" font-family="Sans-Serif" font-size="10.00" fill="#2d3436">разработки моделей</text>
</g>
<!-- 3d129aa328bf42b89303d388832ded41&#45;&gt;088bca409bd340d4a89e7dfbfd4025d0 -->
<g id="edge2" class="edge">
<title>3d129aa328bf42b89303d388832ded41&#45;&gt;088bca409bd340d4a89e7dfbfd4025d0</title>
<path fill="none" stroke="#999999" stroke-dasharray="5,2" d="M20.7,-226.25C14.01,-218.07 8.21,-209.18 4.08,-199.7 -3.68,-181.89 1,-164.36 11.46,-148.5"/>
<polygon fill="#999999" stroke="#999999" points="14.19,-150.7 17.33,-140.58 8.56,-146.53 14.19,-150.7"/>
<text text-anchor="start" x="4.08" y="-184.57" font-family="Sans-Serif" font-size="10.00" fill="#2d3436">Использует результаты</text>
<text text-anchor="start" x="14.58" y="-173.32" font-family="Sans-Serif" font-size="10.00" fill="#2d3436">работы ML моделей</text>
</g>
</g>
</svg>
