<?xml version="1.0" encoding="UTF-8" standalone="no"?>
<!DOCTYPE svg PUBLIC "-//W3C//DTD SVG 1.1//EN"
 "http://www.w3.org/Graphics/SVG/1.1/DTD/svg11.dtd">
<!-- Generated by graphviz version 2.43.0 (0)
 -->
<!-- Title: docs/c4&#45;context Pages: 1 -->
<svg width="539pt" height="778pt"
 viewBox="0.00 0.00 539.31 778.00" xmlns="http://www.w3.org/2000/svg" xmlns:xlink="http://www.w3.org/1999/xlink">
<g id="graph0" class="graph" transform="scale(1 1) rotate(0) translate(144 634)">
<title>docs/c4&#45;context</title>
<polygon fill="white" stroke="transparent" points="-144,144 -144,-634 395.31,-634 395.31,144 -144,144"/>
<text text-anchor="middle" x="125.65" y="-9" font-family="Sans-Serif" font-size="15.00" fill="#2d3436">docs/c4&#45;context</text>
<!-- 2ff54b465af84657b9f6109a828141f0 -->
<g id="node1" class="node">
<title>2ff54b465af84657b9f6109a828141f0</title>
<path fill="#104e8b" stroke="black" d="M160.31,-490C160.31,-490 40.31,-490 40.31,-490 34.31,-490 28.31,-484 28.31,-478 28.31,-478 28.31,-430 28.31,-430 28.31,-424 34.31,-418 40.31,-418 40.31,-418 160.31,-418 160.31,-418 166.31,-418 172.31,-424 172.31,-430 172.31,-430 172.31,-478 172.31,-478 172.31,-484 166.31,-490 160.31,-490"/>
<text text-anchor="start" x="51.81" y="-455.9" font-family="Sans-Serif" font-weight="bold" font-size="12.00" fill="white">Пользователь</text>
<text text-anchor="start" x="81.31" y="-446.3" font-family="Sans-Serif" font-size="9.00" fill="white">[Person]</text>
</g>
<!-- e440fd69ebf84963a877c61c3e88305a -->
<g id="node3" class="node">
<title>e440fd69ebf84963a877c61c3e88305a</title>
<polygon fill="#999999" stroke="black" points="193.81,-342 6.81,-342 6.81,-227 193.81,-227 193.81,-342"/>
<text text-anchor="start" x="35.81" y="-302.9" font-family="Sans-Serif" font-weight="bold" font-size="12.00" fill="white">Онлайн кинотеатр</text>
<text text-anchor="start" x="59.31" y="-293.3" font-family="Sans-Serif" font-size="9.00" fill="white">[External System]</text>
<text text-anchor="start" x="-0.19" y="-270.5" font-family="Sans-Serif" font-size="10.00" fill="white">ПО, данные, инфраструктура онлайн&#45;</text>
<text text-anchor="start" x="69.31" y="-260.5" font-family="Sans-Serif" font-size="10.00" fill="white">кинотеатра</text>
</g>
<!-- 2ff54b465af84657b9f6109a828141f0&#45;&gt;e440fd69ebf84963a877c61c3e88305a -->
<g id="edge3" class="edge">
<title>2ff54b465af84657b9f6109a828141f0&#45;&gt;e440fd69ebf84963a877c61c3e88305a</title>
<path fill="none" stroke="#999999" stroke-dasharray="5,2" d="M100.31,-417.89C100.31,-398.92 100.31,-374.86 100.31,-352.47"/>
<polygon fill="#999999" stroke="#999999" points="103.81,-352.32 100.31,-342.32 96.81,-352.32 103.81,-352.32"/>
<text text-anchor="start" x="100.31" y="-383" font-family="Sans-Serif" font-size="10.00" fill="#2d3436">Использует возможности</text>
<text text-anchor="start" x="115.81" y="-372" font-family="Sans-Serif" font-size="10.00" fill="#2d3436">онлайн&#45;кинотеатра</text>
</g>
<!-- d34fd0afa1f543aebe948076d8337661 -->
<g id="node2" class="node">
<title>d34fd0afa1f543aebe948076d8337661</title>
<polygon fill="#104e8b" stroke="black" points="193.81,-140 6.81,-140 6.81,-25 193.81,-25 193.81,-140"/>
<text text-anchor="start" x="55.31" y="-100.9" font-family="Sans-Serif" font-weight="bold" font-size="12.00" fill="white">ML конвейер</text>
<text text-anchor="start" x="79.31" y="-91.3" font-family="Sans-Serif" font-size="9.00" fill="white">[System]</text>
<text text-anchor="start" x="-6.19" y="-68.5" font-family="Sans-Serif" font-size="10.00" fill="white">Позволяет продуктивизировать модели</text>
</g>
<!-- d34fd0afa1f543aebe948076d8337661&#45;&gt;e440fd69ebf84963a877c61c3e88305a -->
<g id="edge1" class="edge">
<title>d34fd0afa1f543aebe948076d8337661&#45;&gt;e440fd69ebf84963a877c61c3e88305a</title>
<path fill="none" stroke="#999999" stroke-dasharray="5,2" d="M134.03,-140.23C141.46,-159 145.92,-180.16 141.31,-200 139.97,-205.74 138.19,-211.55 136.1,-217.28"/>
<polygon fill="#999999" stroke="#999999" points="132.75,-216.24 132.34,-226.83 139.26,-218.81 132.75,-216.24"/>
<text text-anchor="start" x="143.81" y="-192" font-family="Sans-Serif" font-size="10.00" fill="#2d3436">Использует данные</text>
<text text-anchor="start" x="154.31" y="-181" font-family="Sans-Serif" font-size="10.00" fill="#2d3436">кинотеатра для</text>
<text text-anchor="start" x="142.31" y="-170" font-family="Sans-Serif" font-size="10.00" fill="#2d3436">разработки моделей</text>
</g>
<!-- e440fd69ebf84963a877c61c3e88305a&#45;&gt;d34fd0afa1f543aebe948076d8337661 -->
<g id="edge2" class="edge">
<title>e440fd69ebf84963a877c61c3e88305a&#45;&gt;d34fd0afa1f543aebe948076d8337661</title>
<path fill="none" stroke="#999999" stroke-dasharray="5,2" d="M21.87,-226.81C14.83,-218.61 8.7,-209.65 4.31,-200 -3.97,-181.82 1.19,-164.14 12.52,-148.28"/>
<polygon fill="#999999" stroke="#999999" points="15.49,-150.16 18.96,-140.15 10.01,-145.81 15.49,-150.16"/>
<text text-anchor="start" x="4.31" y="-186.5" font-family="Sans-Serif" font-size="10.00" fill="#2d3436">Использует результаты</text>
<text text-anchor="start" x="15.31" y="-175.5" font-family="Sans-Serif" font-size="10.00" fill="#2d3436">работы ML моделей</text>
</g>
</g>
</svg>
