<svg aria-roledescription="mindmap" role="graphics-document document" viewBox="5 5 1585.92333984375 526.8842163085938" style="max-width: 1585.92px; background-color: white;" xmlns:xlink="http://www.w3.org/1999/xlink" xmlns="http://www.w3.org/2000/svg" width="100%" id="my-svg"><style>#my-svg{font-family:"trebuchet ms",verdana,arial,sans-serif;font-size:16px;fill:#333;}#my-svg .error-icon{fill:#552222;}#my-svg .error-text{fill:#552222;stroke:#552222;}#my-svg .edge-thickness-normal{stroke-width:2px;}#my-svg .edge-thickness-thick{stroke-width:3.5px;}#my-svg .edge-pattern-solid{stroke-dasharray:0;}#my-svg .edge-pattern-dashed{stroke-dasharray:3;}#my-svg .edge-pattern-dotted{stroke-dasharray:2;}#my-svg .marker{fill:#333333;stroke:#333333;}#my-svg .marker.cross{stroke:#333333;}#my-svg svg{font-family:"trebuchet ms",verdana,arial,sans-serif;font-size:16px;}#my-svg .edge{stroke-width:3;}#my-svg .section--1 rect,#my-svg .section--1 path,#my-svg .section--1 circle,#my-svg .section--1 polygon,#my-svg .section--1 path{fill:hsl(240, 100%, 76.2745098039%);}#my-svg .section--1 text{fill:#ffffff;}#my-svg .node-icon--1{font-size:40px;color:#ffffff;}#my-svg .section-edge--1{stroke:hsl(240, 100%, 76.2745098039%);}#my-svg .edge-depth--1{stroke-width:17;}#my-svg .section--1 line{stroke:hsl(60, 100%, 86.2745098039%);stroke-width:3;}#my-svg .disabled,#my-svg .disabled circle,#my-svg .disabled text{fill:lightgray;}#my-svg .disabled text{fill:#efefef;}#my-svg .section-0 rect,#my-svg .section-0 path,#my-svg .section-0 circle,#my-svg .section-0 polygon,#my-svg .section-0 path{fill:hsl(60, 100%, 73.5294117647%);}#my-svg .section-0 text{fill:black;}#my-svg .node-icon-0{font-size:40px;color:black;}#my-svg .section-edge-0{stroke:hsl(60, 100%, 73.5294117647%);}#my-svg .edge-depth-0{stroke-width:14;}#my-svg .section-0 line{stroke:hsl(240, 100%, 83.5294117647%);stroke-width:3;}#my-svg .disabled,#my-svg .disabled circle,#my-svg .disabled text{fill:lightgray;}#my-svg .disabled text{fill:#efefef;}#my-svg .section-1 rect,#my-svg .section-1 path,#my-svg .section-1 circle,#my-svg .section-1 polygon,#my-svg .section-1 path{fill:hsl(80, 100%, 76.2745098039%);}#my-svg .section-1 text{fill:black;}#my-svg .node-icon-1{font-size:40px;color:black;}#my-svg .section-edge-1{stroke:hsl(80, 100%, 76.2745098039%);}#my-svg .edge-depth-1{stroke-width:11;}#my-svg .section-1 line{stroke:hsl(260, 100%, 86.2745098039%);stroke-width:3;}#my-svg .disabled,#my-svg .disabled circle,#my-svg .disabled text{fill:lightgray;}#my-svg .disabled text{fill:#efefef;}#my-svg .section-2 rect,#my-svg .section-2 path,#my-svg .section-2 circle,#my-svg .section-2 polygon,#my-svg .section-2 path{fill:hsl(270, 100%, 76.2745098039%);}#my-svg .section-2 text{fill:#ffffff;}#my-svg .node-icon-2{font-size:40px;color:#ffffff;}#my-svg .section-edge-2{stroke:hsl(270, 100%, 76.2745098039%);}#my-svg .edge-depth-2{stroke-width:8;}#my-svg .section-2 line{stroke:hsl(90, 100%, 86.2745098039%);stroke-width:3;}#my-svg .disabled,#my-svg .disabled circle,#my-svg .disabled text{fill:lightgray;}#my-svg .disabled text{fill:#efefef;}#my-svg .section-3 rect,#my-svg .section-3 path,#my-svg .section-3 circle,#my-svg .section-3 polygon,#my-svg .section-3 path{fill:hsl(300, 100%, 76.2745098039%);}#my-svg .section-3 text{fill:black;}#my-svg .node-icon-3{font-size:40px;color:black;}#my-svg .section-edge-3{stroke:hsl(300, 100%, 76.2745098039%);}#my-svg .edge-depth-3{stroke-width:5;}#my-svg .section-3 line{stroke:hsl(120, 100%, 86.2745098039%);stroke-width:3;}#my-svg .disabled,#my-svg .disabled circle,#my-svg .disabled text{fill:lightgray;}#my-svg .disabled text{fill:#efefef;}#my-svg .section-4 rect,#my-svg .section-4 path,#my-svg .section-4 circle,#my-svg .section-4 polygon,#my-svg .section-4 path{fill:hsl(330, 100%, 76.2745098039%);}#my-svg .section-4 text{fill:black;}#my-svg .node-icon-4{font-size:40px;color:black;}#my-svg .section-edge-4{stroke:hsl(330, 100%, 76.2745098039%);}#my-svg .edge-depth-4{stroke-width:2;}#my-svg .section-4 line{stroke:hsl(150, 100%, 86.2745098039%);stroke-width:3;}#my-svg .disabled,#my-svg .disabled circle,#my-svg .disabled text{fill:lightgray;}#my-svg .disabled text{fill:#efefef;}#my-svg .section-5 rect,#my-svg .section-5 path,#my-svg .section-5 circle,#my-svg .section-5 polygon,#my-svg .section-5 path{fill:hsl(0, 100%, 76.2745098039%);}#my-svg .section-5 text{fill:black;}#my-svg .node-icon-5{font-size:40px;color:black;}#my-svg .section-edge-5{stroke:hsl(0, 100%, 76.2745098039%);}#my-svg .edge-depth-5{stroke-width:-1;}#my-svg .section-5 line{stroke:hsl(180, 100%, 86.2745098039%);stroke-width:3;}#my-svg .disabled,#my-svg .disabled circle,#my-svg .disabled text{fill:lightgray;}#my-svg .disabled text{fill:#efefef;}#my-svg .section-6 rect,#my-svg .section-6 path,#my-svg .section-6 circle,#my-svg .section-6 polygon,#my-svg .section-6 path{fill:hsl(30, 100%, 76.2745098039%);}#my-svg .section-6 text{fill:black;}#my-svg .node-icon-6{font-size:40px;color:black;}#my-svg .section-edge-6{stroke:hsl(30, 100%, 76.2745098039%);}#my-svg .edge-depth-6{stroke-width:-4;}#my-svg .section-6 line{stroke:hsl(210, 100%, 86.2745098039%);stroke-width:3;}#my-svg .disabled,#my-svg .disabled circle,#my-svg .disabled text{fill:lightgray;}#my-svg .disabled text{fill:#efefef;}#my-svg .section-7 rect,#my-svg .section-7 path,#my-svg .section-7 circle,#my-svg .section-7 polygon,#my-svg .section-7 path{fill:hsl(90, 100%, 76.2745098039%);}#my-svg .section-7 text{fill:black;}#my-svg .node-icon-7{font-size:40px;color:black;}#my-svg .section-edge-7{stroke:hsl(90, 100%, 76.2745098039%);}#my-svg .edge-depth-7{stroke-width:-7;}#my-svg .section-7 line{stroke:hsl(270, 100%, 86.2745098039%);stroke-width:3;}#my-svg .disabled,#my-svg .disabled circle,#my-svg .disabled text{fill:lightgray;}#my-svg .disabled text{fill:#efefef;}#my-svg .section-8 rect,#my-svg .section-8 path,#my-svg .section-8 circle,#my-svg .section-8 polygon,#my-svg .section-8 path{fill:hsl(150, 100%, 76.2745098039%);}#my-svg .section-8 text{fill:black;}#my-svg .node-icon-8{font-size:40px;color:black;}#my-svg .section-edge-8{stroke:hsl(150, 100%, 76.2745098039%);}#my-svg .edge-depth-8{stroke-width:-10;}#my-svg .section-8 line{stroke:hsl(330, 100%, 86.2745098039%);stroke-width:3;}#my-svg .disabled,#my-svg .disabled circle,#my-svg .disabled text{fill:lightgray;}#my-svg .disabled text{fill:#efefef;}#my-svg .section-9 rect,#my-svg .section-9 path,#my-svg .section-9 circle,#my-svg .section-9 polygon,#my-svg .section-9 path{fill:hsl(180, 100%, 76.2745098039%);}#my-svg .section-9 text{fill:black;}#my-svg .node-icon-9{font-size:40px;color:black;}#my-svg .section-edge-9{stroke:hsl(180, 100%, 76.2745098039%);}#my-svg .edge-depth-9{stroke-width:-13;}#my-svg .section-9 line{stroke:hsl(0, 100%, 86.2745098039%);stroke-width:3;}#my-svg .disabled,#my-svg .disabled circle,#my-svg .disabled text{fill:lightgray;}#my-svg .disabled text{fill:#efefef;}#my-svg .section-10 rect,#my-svg .section-10 path,#my-svg .section-10 circle,#my-svg .section-10 polygon,#my-svg .section-10 path{fill:hsl(210, 100%, 76.2745098039%);}#my-svg .section-10 text{fill:black;}#my-svg .node-icon-10{font-size:40px;color:black;}#my-svg .section-edge-10{stroke:hsl(210, 100%, 76.2745098039%);}#my-svg .edge-depth-10{stroke-width:-16;}#my-svg .section-10 line{stroke:hsl(30, 100%, 86.2745098039%);stroke-width:3;}#my-svg .disabled,#my-svg .disabled circle,#my-svg .disabled text{fill:lightgray;}#my-svg .disabled text{fill:#efefef;}#my-svg .section-root rect,#my-svg .section-root path,#my-svg .section-root circle,#my-svg .section-root polygon{fill:hsl(240, 100%, 46.2745098039%);}#my-svg .section-root text{fill:#ffffff;}#my-svg .icon-container{height:100%;display:flex;justify-content:center;align-items:center;}#my-svg .edge{fill:none;}#my-svg .mindmap-node-label{dy:1em;alignment-baseline:middle;text-anchor:middle;dominant-baseline:middle;text-align:center;}#my-svg :root{--mermaid-font-family:"trebuchet ms",verdana,arial,sans-serif;}</style><g/><g class="mindmap-edges"><path class="edge section-edge-0 edge-depth-1" d="M 673.3078659959971,410.2247111914459 L 672.1303634036508,445.20480458157294 L670.9528608113044,480.18489797169997"/><path class="edge section-edge-0 edge-depth-0" d="M 674.526946036107,309.9593060469276 L 674.2325623509868,345.0965174785152 L673.9381786658665,380.23372891010274"/><path class="edge section-edge-1 edge-depth-1" d="M 495.9471542183928,359.07180331725806 L 433.3928941711481,339.0313709984697 L370.8386341239035,318.99093867968134"/><path class="edge section-edge-1 edge-depth-1" d="M 501.59658945699175,375.91320518913005 L 481.76966891422535,404.07368622173266 L461.94274837145906,432.23416725433526"/><path class="edge section-edge-1 edge-depth-1" d="M 495.40674310099985,365.93123318400717 L 407.22291798959907,379.5111142244947 L319.0390928781983,393.0909952649823"/><path class="edge section-edge-1 edge-depth-0" d="M 660.8118387806348,300.7419564933912 L 592.4422999154942,329.3040250668463 L524.0727610503536,357.86609364030136"/><path class="edge section-edge-2 edge-depth-2" d="M 631.7916744371997,97.60703155017367 L 607.2739606390728,70.79247865848211 L582.7562468409459,43.977925766790534"/><path class="edge section-edge-2 edge-depth-2" d="M 654.8140883122411,101.02362268539525 L 695.3358861831945,76.98317264362461 L735.8576840541479,52.94272260185397"/><path class="edge section-edge-2 edge-depth-1" d="M 630.4493736181967,184.36951296015405 L 635.0583439663031,153.93875832303993 L639.6673143144096,123.50800368592583"/><path class="edge section-edge-2 edge-depth-0" d="M 668.1061536463354,281.46376396945243 L 651.427870044871,247.08010214736174 L634.7495864434067,212.69644032527108"/><path class="edge section-edge-3 edge-depth-2" d="M 852.2345355335792,404.4500548722126 L 867.3293074663156,433.2348223588924 L882.4240793990518,462.0195898455721"/><path class="edge section-edge-3 edge-depth-1" d="M 892.7346400728475,322.2873184927319 L 873.2572584276154,350.55096131522475 L853.7798767823831,378.8146041377176"/><path class="edge section-edge-3 edge-depth-3" d="M 1160.4530595993685,183.33446486930498 L 1222.5716772575886,184.6515122204169 L1284.6902949158086,185.9685595715288"/><path class="edge section-edge-3 edge-depth-3" d="M 1134.877458092973,172.38234449654075 L 1108.6413182678452,146.00933704724017 L1082.4051784427172,119.63632959793958"/><path class="edge section-edge-3 edge-depth-3" d="M 1154.0330755305445,170.71036150123473 L 1173.6963730818668,142.49660998670086 L1193.3596706331891,114.28285847216699"/><path class="edge section-edge-3 edge-depth-2" d="M 1037.3030033483385,238.26090372177947 L 1084.7006053742552,214.05037114163068 L1132.098207400172,189.83983856148188"/><path class="edge section-edge-3 edge-depth-1" d="M 914.5078160969248,302.9267567247791 L 962.5955179611576,277.51017281777763 L1010.6832198253904,252.0935889107762"/><path class="edge section-edge-3 edge-depth-3" d="M 1338.7732419626034,314.8648582029785 L 1425.5712061377533,323.55983927419226 L1512.3691703129032,332.254820345406"/><path class="edge section-edge-3 edge-depth-2" d="M 1109.5738497743596,319.9339324759618 L 1209.2144131498646,316.88147710664634 L1308.8549765253697,313.8290217373309"/><path class="edge section-edge-3 edge-depth-3" d="M 1220.2877175868102,393.3466352377794 L 1245.152387095694,419.9307141617091 L1270.0170566045776,446.51479308563876"/><path class="edge section-edge-3 edge-depth-2" d="M 1107.7961854641917,327.4894185362953 L 1152.3110953923524,351.392457746819 L1196.8260053205133,375.29549695734266"/><path class="edge section-edge-3 edge-depth-1" d="M 916.2243616110788,310.746247032202 L 997.9135692803611,315.1646723186642 L1079.6027769496434,319.5830976051264"/><path class="edge section-edge-3 edge-depth-2" d="M 1002.5402896281846,391.69264432280096 L 1027.3469034154955,418.7494691970453 L1052.1535172028066,445.80629407128964"/><path class="edge section-edge-3 edge-depth-1" d="M 913.0991215880939,319.129015587111 L 946.8248353638274,345.28618041191686 L980.550549139561,371.44334523672273"/><path class="edge section-edge-3 edge-depth-0" d="M 689.6199581055064,295.94907060802257 L 787.9494342519414,302.44797005629084 L886.2789103983765,308.9468695045591"/><path class="edge section-edge-4 edge-depth-1" d="M 831.2138171707567,216.2031273599373 L 856.4064015968363,189.780720428505 L881.5989860229159,163.35831349707263"/><path class="edge section-edge-4 edge-depth-0" d="M 688.2571391551589,288.64185188268164 L 747.7577442561408,261.0096011060107 L807.2583493571227,233.37735032933972"/><path class="edge section-edge-5 edge-depth-2" d="M 446.1124408239899,139.70993859240554 L 424.2136824990648,112.45311707108883 L402.3149241741397,85.19629554977213"/><path class="edge section-edge-5 edge-depth-1" d="M 453.2779741788839,226.9086482822825 L 454.17127385123774,196.65276726026414 L455.0645735235916,166.39688623824577"/><path class="edge section-edge-5 edge-depth-2" d="M 293.11640358362104,177.89491404684594 L 250.11897817609776,154.0092727193912 L207.12155276857447,130.12363139193644"/><path class="edge section-edge-5 edge-depth-1" d="M 438.84587891607896,236.48951393260631 L 379.53214632716157,213.54062460781165 L320.2184137382442,190.59173528301704"/><path class="edge section-edge-5 edge-depth-2" d="M 219.86506369695903,260.24608078277566 L 141.41714901743427,254.60891883252918 L62.969234337909484,248.97175688228273"/><path class="edge section-edge-5 edge-depth-1" d="M 437.89445017505125,243.23296623935164 L 343.8308901011828,251.61165159024034 L249.7673300273144,259.990336941129"/><path class="edge section-edge-5 edge-depth-0" d="M 660.0641449442976,291.4703355861279 L 563.7439540276663,268.43097357665084 L467.423763111035,245.3916115671738"/></g><g class="mindmap-nodes"><g transform="translate(576.7541758878355, 268.25202072854734)" class="mindmap-node section--1 section-root"><g transform="translate(97.8984375, 26.707811737060545)"><circle r="97.8984375" class="node-bkg node-circle" id="node-0"/></g><g transform="translate(97.8984375, 5)" text-anchor="middle" dominant-baseline="middle" alignment-baseline="middle" dy="1em"><g><rect class="background"/><text y="-10.1"><tspan dy="1.1em" y="-0.1em" x="0" class="text-outer-tspan"><tspan font-weight="normal" class="text-inner-tspan" font-style="normal">Агрегатор</tspan><tspan font-weight="normal" class="text-inner-tspan" font-style="normal"> мероприятий</tspan></tspan><tspan dy="1.1em" y="1em" x="0" class="text-outer-tspan"><tspan font-weight="normal" class="text-inner-tspan" font-style="normal">MorePost</tspan></tspan></text></g></g></g><g transform="translate(617.3828238141381, 377.3253899914225)" class="mindmap-node section-0"><g><path d="M0 30.815624999999997 v-25.815624999999997 q0,-5 5,-5 h102.859375 q5,0 5,5 v30.815624999999997 H0 Z" class="node-bkg node-no-border" id="node-1"/><line y2="35.815625" x2="112.859375" y1="35.815625" x1="0" class="node-line-0"/></g><g transform="translate(56.4296875, 5)" text-anchor="middle" dominant-baseline="middle" alignment-baseline="middle" dy="1em"><g><rect class="background"/><text y="-10.1"><tspan dy="1.1em" y="-0.1em" x="0" class="text-outer-tspan"><tspan font-weight="normal" class="text-inner-tspan" font-style="normal">Бизнес-цель</tspan></tspan></text></g></g></g><g transform="translate(574.4638404931634, 468.46859493466286)" class="mindmap-node section-0"><g><path d="M0 48.41562347412109 v-43.41562347412109 q0,-5 5,-5 h181.96875 q5,0 5,5 v48.41562347412109 H0 Z" class="node-bkg node-no-border" id="node-2"/><line y2="53.41562347412109" x2="191.96875" y1="53.41562347412109" x1="0" class="node-line-0"/></g><g transform="translate(95.984375, 5)" text-anchor="middle" dominant-baseline="middle" alignment-baseline="middle" dy="1em"><g><rect class="background"/><text y="-10.1"><tspan dy="1.1em" y="-0.1em" x="0" class="text-outer-tspan"><tspan font-weight="normal" class="text-inner-tspan" font-style="normal">Персонализированные</tspan></tspan><tspan dy="1.1em" y="1em" x="0" class="text-outer-tspan"><tspan font-weight="normal" class="text-inner-tspan" font-style="normal">подборки</tspan><tspan font-weight="normal" class="text-inner-tspan" font-style="normal"> мероприятий</tspan></tspan></text></g></g></g><g transform="translate(460.325736443153, 345.74040516808475)" class="mindmap-node section-1"><g><path d="M0 30.815624999999997 v-25.815624999999997 q0,-5 5,-5 h89.8125 q5,0 5,5 v30.815624999999997 H0 Z" class="node-bkg node-no-border" id="node-3"/><line y2="35.815625" x2="99.8125" y1="35.815625" x1="0" class="node-line-1"/></g><g transform="translate(49.90625, 5)" text-anchor="middle" dominant-baseline="middle" alignment-baseline="middle" dy="1em"><g><rect class="background"/><text y="-10.1"><tspan dy="1.1em" y="-0.1em" x="0" class="text-outer-tspan"><tspan font-weight="normal" class="text-inner-tspan" font-style="normal">ML</tspan><tspan font-weight="normal" class="text-inner-tspan" font-style="normal"> Задачи</tspan></tspan></text></g></g></g><g transform="translate(260.4678643991433, 296.5067118288547)" class="mindmap-node section-1"><g><path d="M0 30.815624999999997 v-25.815624999999997 q0,-5 5,-5 h182.171875 q5,0 5,5 v30.815624999999997 H0 Z" class="node-bkg node-no-border" id="node-4"/><line y2="35.815625" x2="192.171875" y1="35.815625" x1="0" class="node-line-1"/></g><g transform="translate(96.0859375, 5)" text-anchor="middle" dominant-baseline="middle" alignment-baseline="middle" dy="1em"><g><rect class="background"/><text y="-10.1"><tspan dy="1.1em" y="-0.1em" x="0" class="text-outer-tspan"><tspan font-weight="normal" class="text-inner-tspan" font-style="normal">Классификация</tspan><tspan font-weight="normal" class="text-inner-tspan" font-style="normal"> постов</tspan></tspan></text></g></g></g><g transform="translate(361.8425076352978, 426.5913422753806)" class="mindmap-node section-1"><g><path d="M0 30.815624999999997 v-25.815624999999997 q0,-5 5,-5 h172.9296875 q5,0 5,5 v30.815624999999997 H0 Z" class="node-bkg node-no-border" id="node-5"/><line y2="35.815625" x2="182.9296875" y1="35.815625" x1="0" class="node-line-1"/></g><g transform="translate(91.46484375, 5)" text-anchor="middle" dominant-baseline="middle" alignment-baseline="middle" dy="1em"><g><rect class="background"/><text y="-10.1"><tspan dy="1.1em" y="-0.1em" x="0" class="text-outer-tspan"><tspan font-weight="normal" class="text-inner-tspan" font-style="normal">Суммаризация</tspan><tspan font-weight="normal" class="text-inner-tspan" font-style="normal"> текста</tspan></tspan></text></g></g></g><g transform="translate(208.17478703604513, 377.4661982809048)" class="mindmap-node section-1"><g><path d="M0 30.815624999999997 v-25.815624999999997 q0,-5 5,-5 h182.078125 q5,0 5,5 v30.815624999999997 H0 Z" class="node-bkg node-no-border" id="node-6"/><line y2="35.815625" x2="192.078125" y1="35.815625" x1="0" class="node-line-1"/></g><g transform="translate(96.0390625, 5)" text-anchor="middle" dominant-baseline="middle" alignment-baseline="middle" dy="1em"><g><rect class="background"/><text y="-10.1"><tspan dy="1.1em" y="-0.1em" x="0" class="text-outer-tspan"><tspan font-weight="normal" class="text-inner-tspan" font-style="normal">Тематика</tspan><tspan font-weight="normal" class="text-inner-tspan" font-style="normal"> мероприятия</tspan></tspan></text></g></g></g><g transform="translate(549.6484392019066, 181.29255932911565)" class="mindmap-node section-2"><g><path d="M0 30.815624999999997 v-25.815624999999997 q0,-5 5,-5 h147.109375 q5,0 5,5 v30.815624999999997 H0 Z" class="node-bkg node-no-border" id="node-7"/><line y2="35.815625" x2="157.109375" y1="35.815625" x1="0" class="node-line-2"/></g><g transform="translate(78.5546875, 5)" text-anchor="middle" dominant-baseline="middle" alignment-baseline="middle" dy="1em"><g><rect class="background"/><text y="-10.1"><tspan dy="1.1em" y="-0.1em" x="0" class="text-outer-tspan"><tspan font-weight="normal" class="text-inner-tspan" font-style="normal">Источники</tspan><tspan font-weight="normal" class="text-inner-tspan" font-style="normal"> данных</tspan></tspan></text></g></g></g><g transform="translate(566.1948112306997, 90.76933231696421)" class="mindmap-node section-2"><g><path d="M0 30.815624999999997 v-25.815624999999997 q0,-5 5,-5 h141.4375 q5,0 5,5 v30.815624999999997 H0 Z" class="node-bkg node-no-border" id="node-8"/><line y2="35.815625" x2="151.4375" y1="35.815625" x1="0" class="node-line-2"/></g><g transform="translate(75.71875, 5)" text-anchor="middle" dominant-baseline="middle" alignment-baseline="middle" dy="1em"><g><rect class="background"/><text y="-10.1"><tspan dy="1.1em" y="-0.1em" x="0" class="text-outer-tspan"><tspan font-weight="normal" class="text-inner-tspan" font-style="normal">Социальные</tspan><tspan font-weight="normal" class="text-inner-tspan" font-style="normal"> сети</tspan></tspan></text></g></g></g><g transform="translate(525.153891297446, 15)" class="mindmap-node section-2"><g><path d="M0 30.815624999999997 v-25.815624999999997 q0,-5 5,-5 h84.9609375 q5,0 5,5 v30.815624999999997 H0 Z" class="node-bkg node-no-border" id="node-9"/><line y2="35.815625" x2="94.9609375" y1="35.815625" x1="0" class="node-line-2"/></g><g transform="translate(47.48046875, 5)" text-anchor="middle" dominant-baseline="middle" alignment-baseline="middle" dy="1em"><g><rect class="background"/><text y="-10.1"><tspan dy="1.1em" y="-0.1em" x="0" class="text-outer-tspan"><tspan font-weight="normal" class="text-inner-tspan" font-style="normal">Вконтакте</tspan></tspan></text></g></g></g><g transform="translate(705.8519611356893, 27.381387970285004)" class="mindmap-node section-2"><g><path d="M0 30.815624999999997 v-25.815624999999997 q0,-5 5,-5 h75.8125 q5,0 5,5 v30.815624999999997 H0 Z" class="node-bkg node-no-border" id="node-10"/><line y2="35.815625" x2="85.8125" y1="35.815625" x1="0" class="node-line-2"/></g><g transform="translate(42.90625, 5)" text-anchor="middle" dominant-baseline="middle" alignment-baseline="middle" dy="1em"><g><rect class="background"/><text y="-10.1"><tspan dy="1.1em" y="-0.1em" x="0" class="text-outer-tspan"><tspan font-weight="normal" class="text-inner-tspan" font-style="normal">Telegram</tspan></tspan></text></g></g></g><g transform="translate(848.7775051160475, 292.02829514697385)" class="mindmap-node section-3"><g><path d="M0 30.815624999999997 v-25.815624999999997 q0,-5 5,-5 h94.9375 q5,0 5,5 v30.815624999999997 H0 Z" class="node-bkg node-no-border" id="node-11"/><line y2="35.815625" x2="104.9375" y1="35.815625" x1="0" class="node-line-3"/></g><g transform="translate(52.46875, 5)" text-anchor="middle" dominant-baseline="middle" alignment-baseline="middle" dy="1em"><g><rect class="background"/><text y="-10.1"><tspan dy="1.1em" y="-0.1em" x="0" class="text-outer-tspan"><tspan font-weight="normal" class="text-inner-tspan" font-style="normal">Технологии</tspan></tspan></text></g></g></g><g transform="translate(786.0807617391831, 373.2580024834757)" class="mindmap-node section-3"><g><path d="M0 30.815624999999997 v-25.815624999999997 q0,-5 5,-5 h108.375 q5,0 5,5 v30.815624999999997 H0 Z" class="node-bkg node-no-border" id="node-12"/><line y2="35.815625" x2="118.375" y1="35.815625" x1="0" class="node-line-3"/></g><g transform="translate(59.1875, 5)" text-anchor="middle" dominant-baseline="middle" alignment-baseline="middle" dy="1em"><g><rect class="background"/><text y="-10.1"><tspan dy="1.1em" y="-0.1em" x="0" class="text-outer-tspan"><tspan font-weight="normal" class="text-inner-tspan" font-style="normal">Сбор</tspan><tspan font-weight="normal" class="text-inner-tspan" font-style="normal"> данных</tspan></tspan></text></g></g></g><g transform="translate(820.3825406934479, 457.39601723430906)" class="mindmap-node section-3"><g><path d="M0 30.815624999999997 v-25.815624999999997 q0,-5 5,-5 h128.015625 q5,0 5,5 v30.815624999999997 H0 Z" class="node-bkg node-no-border" id="node-13"/><line y2="35.815625" x2="138.015625" y1="35.815625" x1="0" class="node-line-3"/></g><g transform="translate(69.0078125, 5)" text-anchor="middle" dominant-baseline="middle" alignment-baseline="middle" dy="1em"><g><rect class="background"/><text y="-10.1"><tspan dy="1.1em" y="-0.1em" x="0" class="text-outer-tspan"><tspan font-weight="normal" class="text-inner-tspan" font-style="normal">Python</tspan><tspan font-weight="normal" class="text-inner-tspan" font-style="normal"> парсеры</tspan></tspan></text></g></g></g><g transform="translate(943.6635308062678, 227.17642548858146)" class="mindmap-node section-3"><g><path d="M0 30.815624999999997 v-25.815624999999997 q0,-5 5,-5 h150.5625 q5,0 5,5 v30.815624999999997 H0 Z" class="node-bkg node-no-border" id="node-14"/><line y2="35.815625" x2="160.5625" y1="35.815625" x1="0" class="node-line-3"/></g><g transform="translate(80.28125, 5)" text-anchor="middle" dominant-baseline="middle" alignment-baseline="middle" dy="1em"><g><rect class="background"/><text y="-10.1"><tspan dy="1.1em" y="-0.1em" x="0" class="text-outer-tspan"><tspan font-weight="normal" class="text-inner-tspan" font-style="normal">Обработка</tspan><tspan font-weight="normal" class="text-inner-tspan" font-style="normal"> данных</tspan></tspan></text></g></g></g><g transform="translate(1078.0267424422427, 165.10869179467988)" class="mindmap-node section-3"><g><path d="M0 30.815624999999997 v-25.815624999999997 q0,-5 5,-5 h124.859375 q5,0 5,5 v30.815624999999997 H0 Z" class="node-bkg node-no-border" id="node-15"/><line y2="35.815625" x2="134.859375" y1="35.815625" x1="0" class="node-line-3"/></g><g transform="translate(67.4296875, 5)" text-anchor="middle" dominant-baseline="middle" alignment-baseline="middle" dy="1em"><g><rect class="background"/><text y="-10.1"><tspan dy="1.1em" y="-0.1em" x="0" class="text-outer-tspan"><tspan font-weight="normal" class="text-inner-tspan" font-style="normal">Apache</tspan><tspan font-weight="normal" class="text-inner-tspan" font-style="normal"> Hadoop</tspan></tspan></text></g></g></g><g transform="translate(1267.9056745729345, 168.37870764615388)" class="mindmap-node section-3"><g><path d="M0 30.815624999999997 v-25.815624999999997 q0,-5 5,-5 h53.5625 q5,0 5,5 v30.815624999999997 H0 Z" class="node-bkg node-no-border" id="node-16"/><line y2="35.815625" x2="63.5625" y1="35.815625" x1="0" class="node-line-3"/></g><g transform="translate(31.78125, 5)" text-anchor="middle" dominant-baseline="middle" alignment-baseline="middle" dy="1em"><g><rect class="background"/><text y="-10.1"><tspan dy="1.1em" y="-0.1em" x="0" class="text-outer-tspan"><tspan font-weight="normal" class="text-inner-tspan" font-style="normal">HDFS</tspan></tspan></text></g></g></g><g transform="translate(1040.4277690934475, 91.09435729980044)" class="mindmap-node section-3"><g><path d="M0 30.815624999999997 v-25.815624999999997 q0,-5 5,-5 h52.796875 q5,0 5,5 v30.815624999999997 H0 Z" class="node-bkg node-no-border" id="node-17"/><line y2="35.815625" x2="62.796875" y1="35.815625" x1="0" class="node-line-3"/></g><g transform="translate(31.3984375, 5)" text-anchor="middle" dominant-baseline="middle" alignment-baseline="middle" dy="1em"><g><rect class="background"/><text y="-10.1"><tspan dy="1.1em" y="-0.1em" x="0" class="text-outer-tspan"><tspan font-weight="normal" class="text-inner-tspan" font-style="normal">Spark</tspan></tspan></text></g></g></g><g transform="translate(1170.3035037214909, 84.06890317872183)" class="mindmap-node section-3"><g><path d="M0 30.815624999999997 v-25.815624999999997 q0,-5 5,-5 h53.265625 q5,0 5,5 v30.815624999999997 H0 Z" class="node-bkg node-no-border" id="node-18"/><line y2="35.815625" x2="63.265625" y1="35.815625" x1="0" class="node-line-3"/></g><g transform="translate(31.6328125, 5)" text-anchor="middle" dominant-baseline="middle" alignment-baseline="middle" dy="1em"><g><rect class="background"/><text y="-10.1"><tspan dy="1.1em" y="-0.1em" x="0" class="text-outer-tspan"><tspan font-weight="normal" class="text-inner-tspan" font-style="normal">YARN</tspan></tspan></text></g></g></g><g transform="translate(1018.2136959446748, 302.4854244903546)" class="mindmap-node section-3"><g><path d="M0 30.815624999999997 v-25.815624999999997 q0,-5 5,-5 h142.734375 q5,0 5,5 v30.815624999999997 H0 Z" class="node-bkg node-no-border" id="node-19"/><line y2="35.815625" x2="152.734375" y1="35.815625" x1="0" class="node-line-3"/></g><g transform="translate(76.3671875, 5)" text-anchor="middle" dominant-baseline="middle" alignment-baseline="middle" dy="1em"><g><rect class="background"/><text y="-10.1"><tspan dy="1.1em" y="-0.1em" x="0" class="text-outer-tspan"><tspan font-weight="normal" class="text-inner-tspan" font-style="normal">Хранение</tspan><tspan font-weight="normal" class="text-inner-tspan" font-style="normal"> данных</tspan></tspan></text></g></g></g><g transform="translate(1227.8049741050543, 295.46190472293813)" class="mindmap-node section-3"><g><path d="M0 30.815624999999997 v-25.815624999999997 q0,-5 5,-5 h182.0859375 q5,0 5,5 v30.815624999999997 H0 Z" class="node-bkg node-no-border" id="node-20"/><line y2="35.815625" x2="192.0859375" y1="35.815625" x1="0" class="node-line-3"/></g><g transform="translate(96.04296875, 5)" text-anchor="middle" dominant-baseline="middle" alignment-baseline="middle" dy="1em"><g><rect class="background"/><text y="-10.1"><tspan dy="1.1em" y="-0.1em" x="0" class="text-outer-tspan"><tspan font-weight="normal" class="text-inner-tspan" font-style="normal">Обработанные</tspan><tspan font-weight="normal" class="text-inner-tspan" font-style="normal"> данные</tspan></tspan></text></g></g></g><g transform="translate(1473.6655631704523, 315.84214882544643)" class="mindmap-node section-3"><g><path d="M0 30.815624999999997 v-25.815624999999997 q0,-5 5,-5 h97.2578125 q5,0 5,5 v30.815624999999997 H0 Z" class="node-bkg node-no-border" id="node-21"/><line y2="35.815625" x2="107.2578125" y1="35.815625" x1="0" class="node-line-3"/></g><g transform="translate(53.62890625, 5)" text-anchor="middle" dominant-baseline="middle" alignment-baseline="middle" dy="1em"><g><rect class="background"/><text y="-10.1"><tspan dy="1.1em" y="-0.1em" x="0" class="text-outer-tspan"><tspan font-weight="normal" class="text-inner-tspan" font-style="normal">PostgreSQL</tspan></tspan></text></g></g></g><g transform="translate(1118.3303698400302, 364.4838660032834)" class="mindmap-node section-3"><g><path d="M0 30.815624999999997 v-25.815624999999997 q0,-5 5,-5 h173.421875 q5,0 5,5 v30.815624999999997 H0 Z" class="node-bkg node-no-border" id="node-22"/><line y2="35.815625" x2="183.421875" y1="35.815625" x1="0" class="node-line-3"/></g><g transform="translate(91.7109375, 5)" text-anchor="middle" dominant-baseline="middle" alignment-baseline="middle" dy="1em"><g><rect class="background"/><text y="-10.1"><tspan dy="1.1em" y="-0.1em" x="0" class="text-outer-tspan"><tspan font-weight="normal" class="text-inner-tspan" font-style="normal">Данные</tspan><tspan font-weight="normal" class="text-inner-tspan" font-style="normal"> для</tspan><tspan font-weight="normal" class="text-inner-tspan" font-style="normal"> обучения</tspan></tspan></text></g></g></g><g transform="translate(1248.4822168513576, 439.5619373201348)" class="mindmap-node section-3"><g><path d="M0 30.815624999999997 v-25.815624999999997 q0,-5 5,-5 h53.5625 q5,0 5,5 v30.815624999999997 H0 Z" class="node-bkg node-no-border" id="node-23"/><line y2="35.815625" x2="63.5625" y1="35.815625" x1="0" class="node-line-3"/></g><g transform="translate(31.78125, 5)" text-anchor="middle" dominant-baseline="middle" alignment-baseline="middle" dy="1em"><g><rect class="background"/><text y="-10.1"><tspan dy="1.1em" y="-0.1em" x="0" class="text-outer-tspan"><tspan font-weight="normal" class="text-inner-tspan" font-style="normal">HDFS</tspan></tspan></text></g></g></g><g transform="translate(943.5948218616074, 362.7284406768599)" class="mindmap-node section-3"><g><path d="M0 30.815624999999997 v-25.815624999999997 q0,-5 5,-5 h87.6171875 q5,0 5,5 v30.815624999999997 H0 Z" class="node-bkg node-no-border" id="node-24"/><line y2="35.815625" x2="97.6171875" y1="35.815625" x1="0" class="node-line-3"/></g><g transform="translate(48.80859375, 5)" text-anchor="middle" dominant-baseline="middle" alignment-baseline="middle" dy="1em"><g><rect class="background"/><text y="-10.1"><tspan dy="1.1em" y="-0.1em" x="0" class="text-outer-tspan"><tspan font-weight="normal" class="text-inner-tspan" font-style="normal">Транспорт</tspan></tspan></text></g></g></g><g transform="translate(1031.7825787193838, 438.9548727172307)" class="mindmap-node section-3"><g><path d="M0 30.815624999999997 v-25.815624999999997 q0,-5 5,-5 h51.015625 q5,0 5,5 v30.815624999999997 H0 Z" class="node-bkg node-no-border" id="node-25"/><line y2="35.815625" x2="61.015625" y1="35.815625" x1="0" class="node-line-3"/></g><g transform="translate(30.5078125, 5)" text-anchor="middle" dominant-baseline="middle" alignment-baseline="middle" dy="1em"><g><rect class="background"/><text y="-10.1"><tspan dy="1.1em" y="-0.1em" x="0" class="text-outer-tspan"><tspan font-weight="normal" class="text-inner-tspan" font-style="normal">Kafka</tspan></tspan></text></g></g></g><g transform="translate(741.8824063744462, 209.15155724641352)" class="mindmap-node section-4"><g><path d="M0 30.815624999999997 v-25.815624999999997 q0,-5 5,-5 h147.9609375 q5,0 5,5 v30.815624999999997 H0 Z" class="node-bkg node-no-border" id="node-26"/><line y2="35.815625" x2="157.9609375" y1="35.815625" x1="0" class="node-line-4"/></g><g transform="translate(78.98046875, 5)" text-anchor="middle" dominant-baseline="middle" alignment-baseline="middle" dy="1em"><g><rect class="background"/><text y="-10.1"><tspan dy="1.1em" y="-0.1em" x="0" class="text-outer-tspan"><tspan font-weight="normal" class="text-inner-tspan" font-style="normal">Выходные</tspan><tspan font-weight="normal" class="text-inner-tspan" font-style="normal"> данные</tspan></tspan></text></g></g></g><g transform="translate(782.7468030692264, 134.5942586105964)" class="mindmap-node section-4"><g><path d="M0 30.815624999999997 v-25.815624999999997 q0,-5 5,-5 h208.40625 q5,0 5,5 v30.815624999999997 H0 Z" class="node-bkg node-no-border" id="node-27"/><line y2="35.815625" x2="218.40625" y1="35.815625" x1="0" class="node-line-4"/></g><g transform="translate(109.203125, 5)" text-anchor="middle" dominant-baseline="middle" alignment-baseline="middle" dy="1em"><g><rect class="background"/><text y="-10.1"><tspan dy="1.1em" y="-0.1em" x="0" class="text-outer-tspan"><tspan font-weight="normal" class="text-inner-tspan" font-style="normal">Персональные</tspan><tspan font-weight="normal" class="text-inner-tspan" font-style="normal"> дайджесты</tspan></tspan></text></g></g></g><g transform="translate(394.9446696674971, 223.99430218769385)" class="mindmap-node section-5"><g><path d="M0 30.815624999999997 v-25.815624999999997 q0,-5 5,-5 h105.78125 q5,0 5,5 v30.815624999999997 H0 Z" class="node-bkg node-no-border" id="node-28"/><line y2="35.815625" x2="115.78125" y1="35.815625" x1="0" class="node-line-5"/></g><g transform="translate(57.890625, 5)" text-anchor="middle" dominant-baseline="middle" alignment-baseline="middle" dy="1em"><g><rect class="background"/><text y="-10.1"><tspan dy="1.1em" y="-0.1em" x="0" class="text-outer-tspan"><tspan font-weight="normal" class="text-inner-tspan" font-style="normal">Интерфейсы</tspan></tspan></text></g></g></g><g transform="translate(409.63225303497836, 133.49560733283442)" class="mindmap-node section-5"><g><path d="M0 30.815624999999997 v-25.815624999999997 q0,-5 5,-5 h81.75 q5,0 5,5 v30.815624999999997 H0 Z" class="node-bkg node-no-border" id="node-29"/><line y2="35.815625" x2="91.75" y1="35.815625" x1="0" class="node-line-5"/></g><g transform="translate(45.875, 5)" text-anchor="middle" dominant-baseline="middle" alignment-baseline="middle" dy="1em"><g><rect class="background"/><text y="-10.1"><tspan dy="1.1em" y="-0.1em" x="0" class="text-outer-tspan"><tspan font-weight="normal" class="text-inner-tspan" font-style="normal">REST</tspan><tspan font-weight="normal" class="text-inner-tspan" font-style="normal"> API</tspan></tspan></text></g></g></g><g transform="translate(354.46698696315127, 55.59500180934322)" class="mindmap-node section-5"><g><path d="M0 30.815624999999997 v-25.815624999999997 q0,-5 5,-5 h66.90625 q5,0 5,5 v30.815624999999997 H0 Z" class="node-bkg node-no-border" id="node-30"/><line y2="35.815625" x2="76.90625" y1="35.815625" x1="0" class="node-line-5"/></g><g transform="translate(38.453125, 5)" text-anchor="middle" dominant-baseline="middle" alignment-baseline="middle" dy="1em"><g><rect class="background"/><text y="-10.1"><tspan dy="1.1em" y="-0.1em" x="0" class="text-outer-tspan"><tspan font-weight="normal" class="text-inner-tspan" font-style="normal">FastAPI</tspan></tspan></text></g></g></g><g transform="translate(245.65477923682602, 167.2713220279295)" class="mindmap-node section-5"><g><path d="M0 30.815624999999997 v-25.815624999999997 q0,-5 5,-5 h111.1484375 q5,0 5,5 v30.815624999999997 H0 Z" class="node-bkg node-no-border" id="node-31"/><line y2="35.815625" x2="121.1484375" y1="35.815625" x1="0" class="node-line-5"/></g><g transform="translate(60.57421875, 5)" text-anchor="middle" dominant-baseline="middle" alignment-baseline="middle" dy="1em"><g><rect class="background"/><text y="-10.1"><tspan dy="1.1em" y="-0.1em" x="0" class="text-outer-tspan"><tspan font-weight="normal" class="text-inner-tspan" font-style="normal">Телеграм-бот</tspan></tspan></text></g></g></g><g transform="translate(135.26286461536952, 104.93159841085287)" class="mindmap-node section-5"><g><path d="M0 30.815624999999997 v-25.815624999999997 q0,-5 5,-5 h107.4921875 q5,0 5,5 v30.815624999999997 H0 Z" class="node-bkg node-no-border" id="node-32"/><line y2="35.815625" x2="117.4921875" y1="35.815625" x1="0" class="node-line-5"/></g><g transform="translate(58.74609375, 5)" text-anchor="middle" dominant-baseline="middle" alignment-baseline="middle" dy="1em"><g><rect class="background"/><text y="-10.1"><tspan dy="1.1em" y="-0.1em" x="0" class="text-outer-tspan"><tspan font-weight="normal" class="text-inner-tspan" font-style="normal">AsyncTeleBot</tspan></tspan></text></g></g></g><g transform="translate(134.6428917848685, 243.41337599278674)" class="mindmap-node section-5"><g><path d="M0 30.815624999999997 v-25.815624999999997 q0,-5 5,-5 h190.3671875 q5,0 5,5 v30.815624999999997 H0 Z" class="node-bkg node-no-border" id="node-33"/><line y2="35.815625" x2="200.3671875" y1="35.815625" x1="0" class="node-line-5"/></g><g transform="translate(100.18359375, 5)" text-anchor="middle" dominant-baseline="middle" alignment-baseline="middle" dy="1em"><g><rect class="background"/><text y="-10.1"><tspan dy="1.1em" y="-0.1em" x="0" class="text-outer-tspan"><tspan font-weight="normal" class="text-inner-tspan" font-style="normal">Мобильное</tspan><tspan font-weight="normal" class="text-inner-tspan" font-style="normal"> приложение</tspan></tspan></text></g></g></g><g transform="translate(15, 229.98883667227165)" class="mindmap-node section-5"><g><path d="M0 30.815624999999997 v-25.815624999999997 q0,-5 5,-5 h56.015625 q5,0 5,5 v30.815624999999997 H0 Z" class="node-bkg node-no-border" id="node-34"/><line y2="35.815625" x2="66.015625" y1="35.815625" x1="0" class="node-line-5"/></g><g transform="translate(33.0078125, 5)" text-anchor="middle" dominant-baseline="middle" alignment-baseline="middle" dy="1em"><g><rect class="background"/><text y="-10.1"><tspan dy="1.1em" y="-0.1em" x="0" class="text-outer-tspan"><tspan font-weight="normal" class="text-inner-tspan" font-style="normal">Flutter</tspan></tspan></text></g></g></g></g></svg>