<?xml version="1.0" encoding="UTF-8" standalone="no"?>
<!DOCTYPE svg PUBLIC "-//W3C//DTD SVG 1.1//EN"
 "http://www.w3.org/Graphics/SVG/1.1/DTD/svg11.dtd">
<!-- Generated by graphviz version 2.43.0 (0)
 -->
<!-- Title: docs/usecases Pages: 1 -->
<svg width="1964pt" height="451pt"
 viewBox="0.00 0.00 1964.00 451.00" xmlns="http://www.w3.org/2000/svg" xmlns:xlink="http://www.w3.org/1999/xlink">
<g id="graph0" class="graph" transform="scale(1 1) rotate(0) translate(144 307)">
<title>docs/usecases</title>
<polygon fill="white" stroke="transparent" points="-144,144 -144,-307 1820,-307 1820,144 -144,144"/>
<text text-anchor="middle" x="838" y="-9" font-family="Sans-Serif" font-size="15.00" fill="#2d3436">docs/usecases</text>
<!-- 1e99712675f64330bb0cb8ddf988cf77 -->
<g id="node1" class="node">
<title>1e99712675f64330bb0cb8ddf988cf77</title>
<path fill="#104e8b" stroke="black" d="M132,-97C132,-97 12,-97 12,-97 6,-97 0,-91 0,-85 0,-85 0,-37 0,-37 0,-31 6,-25 12,-25 12,-25 132,-25 132,-25 138,-25 144,-31 144,-37 144,-37 144,-85 144,-85 144,-91 138,-97 132,-97"/>
<text text-anchor="start" x="14" y="-62.9" font-family="Sans-Serif" font-weight="bold" font-size="12.00" fill="white">Бизнес&#45;заказчик</text>
<text text-anchor="start" x="53" y="-53.3" font-family="Sans-Serif" font-size="9.00" fill="white">[Person]</text>
</g>
<!-- 3d16a7ba8ab045e2aaddf1a0093bae48 -->
<g id="node2" class="node">
<title>3d16a7ba8ab045e2aaddf1a0093bae48</title>
<path fill="#104e8b" stroke="black" d="M481,-163C481,-163 361,-163 361,-163 355,-163 349,-157 349,-151 349,-151 349,-103 349,-103 349,-97 355,-91 361,-91 361,-91 481,-91 481,-91 487,-91 493,-97 493,-103 493,-103 493,-151 493,-151 493,-157 487,-163 481,-163"/>
<text text-anchor="start" x="377" y="-128.9" font-family="Sans-Serif" font-weight="bold" font-size="12.00" fill="white">МЛ команда</text>
<text text-anchor="start" x="402" y="-119.3" font-family="Sans-Serif" font-size="9.00" fill="white">[Person]</text>
</g>
<!-- 1e99712675f64330bb0cb8ddf988cf77&#45;&gt;3d16a7ba8ab045e2aaddf1a0093bae48 -->
<g id="edge1" class="edge">
<title>1e99712675f64330bb0cb8ddf988cf77&#45;&gt;3d16a7ba8ab045e2aaddf1a0093bae48</title>
<path fill="none" stroke="black" stroke-dasharray="5,2" d="M144.31,-69C246.54,-69 421,-69 421,-69 421,-69 421,-80.93 421,-80.93"/>
<polygon fill="black" stroke="black" points="417.5,-80.93 421,-90.93 424.5,-80.93 417.5,-80.93"/>
<text text-anchor="middle" x="246.5" y="-114.6" font-family="Sans-Serif" font-size="13.00" fill="#2d3436">Направляет гипотезы</text>
</g>
<!-- 7d5f98864ae74b3db87c5b62b9132e51 -->
<g id="node4" class="node">
<title>7d5f98864ae74b3db87c5b62b9132e51</title>
<polygon fill="#104e8b" stroke="black" points="1676,-97 1532,-97 1532,-25 1676,-25 1676,-97"/>
<text text-anchor="start" x="1539" y="-62.9" font-family="Sans-Serif" font-weight="bold" font-size="12.00" fill="white">Онлайн&#45;кинотеатр</text>
<text text-anchor="start" x="1583" y="-53.3" font-family="Sans-Serif" font-size="9.00" fill="white">[System]</text>
</g>
<!-- 1e99712675f64330bb0cb8ddf988cf77&#45;&gt;7d5f98864ae74b3db87c5b62b9132e51 -->
<g id="edge2" class="edge">
<title>1e99712675f64330bb0cb8ddf988cf77&#45;&gt;7d5f98864ae74b3db87c5b62b9132e51</title>
<path fill="none" stroke="black" stroke-dasharray="5,2" d="M144.09,-47C144.09,-47 1521.91,-47 1521.91,-47"/>
<polygon fill="black" stroke="black" points="1521.91,-50.5 1531.91,-47 1521.91,-43.5 1521.91,-50.5"/>
<text text-anchor="middle" x="745.5" y="-29.6" font-family="Sans-Serif" font-size="13.00" fill="#2d3436">Заказчик обращается к онлайн&#45;кинотеатру для оценки эффекта</text>
</g>
<!-- 230428cc53ba4fa1bc02b986b208883a -->
<g id="node3" class="node">
<title>230428cc53ba4fa1bc02b986b208883a</title>
<polygon fill="#104e8b" stroke="black" points="1142,-163 998,-163 998,-91 1142,-91 1142,-163"/>
<text text-anchor="start" x="999.5" y="-128.9" font-family="Sans-Serif" font-weight="bold" font-size="12.00" fill="white">Сервис ML Моделей</text>
<text text-anchor="start" x="1049" y="-119.3" font-family="Sans-Serif" font-size="9.00" fill="white">[System]</text>
</g>
<!-- 3d16a7ba8ab045e2aaddf1a0093bae48&#45;&gt;230428cc53ba4fa1bc02b986b208883a -->
<g id="edge3" class="edge">
<title>3d16a7ba8ab045e2aaddf1a0093bae48&#45;&gt;230428cc53ba4fa1bc02b986b208883a</title>
<path fill="none" stroke="black" stroke-dasharray="5,2" d="M493.25,-127C493.25,-127 987.83,-127 987.83,-127"/>
<polygon fill="black" stroke="black" points="987.83,-130.5 997.83,-127 987.83,-123.5 987.83,-130.5"/>
<text text-anchor="middle" x="745.5" y="-130.6" font-family="Sans-Serif" font-size="13.00" fill="#2d3436">Разработка и обучение ML моделей</text>
</g>
<!-- 230428cc53ba4fa1bc02b986b208883a&#45;&gt;7d5f98864ae74b3db87c5b62b9132e51 -->
<g id="edge4" class="edge">
<title>230428cc53ba4fa1bc02b986b208883a&#45;&gt;7d5f98864ae74b3db87c5b62b9132e51</title>
<path fill="none" stroke="black" stroke-dasharray="5,2" d="M1142.02,-130C1287.78,-130 1604,-130 1604,-130 1604,-130 1604,-107.12 1604,-107.12"/>
<polygon fill="black" stroke="black" points="1607.5,-107.12 1604,-97.12 1600.5,-107.12 1607.5,-107.12"/>
<text text-anchor="middle" x="1337" y="-114.6" font-family="Sans-Serif" font-size="13.00" fill="#2d3436">Развертывание ML моделей в онлайн&#45;кинотеатр</text>
</g>
</g>
</svg>
