<?xml version="1.0" encoding="UTF-8" standalone="no"?>
<!DOCTYPE svg PUBLIC "-//W3C//DTD SVG 1.1//EN"
 "http://www.w3.org/Graphics/SVG/1.1/DTD/svg11.dtd">
<!-- Generated by graphviz version 9.0.0 (20230911.1827)
 -->
<!-- Title: docs/usecases Pages: 1 -->
<svg width="1880pt" height="450pt"
 viewBox="0.00 0.00 1879.50 449.75" xmlns="http://www.w3.org/2000/svg" xmlns:xlink="http://www.w3.org/1999/xlink">
<g id="graph0" class="graph" transform="scale(1 1) rotate(0) translate(144 305.75)">
<title>docs/usecases</title>
<polygon fill="white" stroke="none" points="-144,144 -144,-305.75 1735.5,-305.75 1735.5,144 -144,144"/>
<text text-anchor="middle" x="795.75" y="-5.5" font-family="Sans-Serif" font-size="15.00" fill="#2d3436">docs/usecases</text>
<!-- 5a6befb5350c4249959704ce4b6fa23d -->
<g id="node1" class="node">
<title>5a6befb5350c4249959704ce4b6fa23d</title>
<path fill="#104e8b" stroke="black" d="M132,-95.75C132,-95.75 12,-95.75 12,-95.75 6,-95.75 0,-89.75 0,-83.75 0,-83.75 0,-35.75 0,-35.75 0,-29.75 6,-23.75 12,-23.75 12,-23.75 132,-23.75 132,-23.75 138,-23.75 144,-29.75 144,-35.75 144,-35.75 144,-83.75 144,-83.75 144,-89.75 138,-95.75 132,-95.75"/>
<text text-anchor="start" x="21.38" y="-59.85" font-family="Sans-Serif" font-weight="bold" font-size="12.00" fill="white">Бизнес&#45;заказчик</text>
<text text-anchor="start" x="55.12" y="-50.7" font-family="Sans-Serif" font-size="9.00" fill="white">[Person]</text>
</g>
<!-- 8268ae6253de41be8d2ca32fb60ada0a -->
<g id="node2" class="node">
<title>8268ae6253de41be8d2ca32fb60ada0a</title>
<path fill="#104e8b" stroke="black" d="M468,-161.75C468,-161.75 348,-161.75 348,-161.75 342,-161.75 336,-155.75 336,-149.75 336,-149.75 336,-101.75 336,-101.75 336,-95.75 342,-89.75 348,-89.75 348,-89.75 468,-89.75 468,-89.75 474,-89.75 480,-95.75 480,-101.75 480,-101.75 480,-149.75 480,-149.75 480,-155.75 474,-161.75 468,-161.75"/>
<text text-anchor="start" x="370.88" y="-125.85" font-family="Sans-Serif" font-weight="bold" font-size="12.00" fill="white">МЛ команда</text>
<text text-anchor="start" x="391.12" y="-116.7" font-family="Sans-Serif" font-size="9.00" fill="white">[Person]</text>
</g>
<!-- 5a6befb5350c4249959704ce4b6fa23d&#45;&gt;8268ae6253de41be8d2ca32fb60ada0a -->
<g id="edge1" class="edge">
<title>5a6befb5350c4249959704ce4b6fa23d&#45;&gt;8268ae6253de41be8d2ca32fb60ada0a</title>
<path fill="none" stroke="black" stroke-dasharray="5,2" d="M144.19,-67.75C243.06,-67.75 408.5,-67.75 408.5,-67.75 408.5,-67.75 408.5,-77.83 408.5,-77.83"/>
<polygon fill="black" stroke="black" points="405,-77.83 408.5,-87.83 412,-77.83 405,-77.83"/>
<text text-anchor="middle" x="240" y="-110.9" font-family="Sans-Serif" font-size="13.00" fill="#2d3436">Направляет гипотезы</text>
</g>
<!-- bfcb1965d2bf4d57adfbbad5a0521f36 -->
<g id="node4" class="node">
<title>bfcb1965d2bf4d57adfbbad5a0521f36</title>
<polygon fill="#104e8b" stroke="black" points="1591.5,-95.75 1447.5,-95.75 1447.5,-23.75 1591.5,-23.75 1591.5,-95.75"/>
<text text-anchor="start" x="1463.25" y="-59.85" font-family="Sans-Serif" font-weight="bold" font-size="12.00" fill="white">Онлайн&#45;кинотеатр</text>
<text text-anchor="start" x="1502.25" y="-50.7" font-family="Sans-Serif" font-size="9.00" fill="white">[System]</text>
</g>
<!-- 5a6befb5350c4249959704ce4b6fa23d&#45;&gt;bfcb1965d2bf4d57adfbbad5a0521f36 -->
<g id="edge2" class="edge">
<title>5a6befb5350c4249959704ce4b6fa23d&#45;&gt;bfcb1965d2bf4d57adfbbad5a0521f36</title>
<path fill="none" stroke="black" stroke-dasharray="5,2" d="M144.28,-45.75C144.28,-45.75 1435.85,-45.75 1435.85,-45.75"/>
<polygon fill="black" stroke="black" points="1435.85,-49.25 1445.85,-45.75 1435.85,-42.25 1435.85,-49.25"/>
<text text-anchor="middle" x="711.75" y="-25.9" font-family="Sans-Serif" font-size="13.00" fill="#2d3436">Заказчик обращается к онлайн&#45;кинотеатру для оценки эффекта</text>
</g>
<!-- 3c2420bf63fa47d0bf7898988274039b -->
<g id="node3" class="node">
<title>3c2420bf63fa47d0bf7898988274039b</title>
<polygon fill="#104e8b" stroke="black" points="1087.5,-161.75 943.5,-161.75 943.5,-89.75 1087.5,-89.75 1087.5,-161.75"/>
<text text-anchor="start" x="954.75" y="-125.85" font-family="Sans-Serif" font-weight="bold" font-size="12.00" fill="white">Сервис ML Моделей</text>
<text text-anchor="start" x="998.25" y="-116.7" font-family="Sans-Serif" font-size="9.00" fill="white">[System]</text>
</g>
<!-- 8268ae6253de41be8d2ca32fb60ada0a&#45;&gt;3c2420bf63fa47d0bf7898988274039b -->
<g id="edge3" class="edge">
<title>8268ae6253de41be8d2ca32fb60ada0a&#45;&gt;3c2420bf63fa47d0bf7898988274039b</title>
<path fill="none" stroke="black" stroke-dasharray="5,2" d="M480.37,-125.75C480.37,-125.75 931.62,-125.75 931.62,-125.75"/>
<polygon fill="black" stroke="black" points="931.62,-129.25 941.62,-125.75 931.62,-122.25 931.62,-129.25"/>
<text text-anchor="middle" x="711.75" y="-126.9" font-family="Sans-Serif" font-size="13.00" fill="#2d3436">Разработка и обучение ML моделей</text>
</g>
<!-- 3c2420bf63fa47d0bf7898988274039b&#45;&gt;bfcb1965d2bf4d57adfbbad5a0521f36 -->
<g id="edge4" class="edge">
<title>3c2420bf63fa47d0bf7898988274039b&#45;&gt;bfcb1965d2bf4d57adfbbad5a0521f36</title>
<path fill="none" stroke="black" stroke-dasharray="5,2" d="M1087.98,-128.75C1227.45,-128.75 1519.5,-128.75 1519.5,-128.75 1519.5,-128.75 1519.5,-107.38 1519.5,-107.38"/>
<polygon fill="black" stroke="black" points="1523,-107.38 1519.5,-97.38 1516,-107.38 1523,-107.38"/>
<text text-anchor="middle" x="1267.5" y="-110.9" font-family="Sans-Serif" font-size="13.00" fill="#2d3436">Развертывание ML моделей в онлайн&#45;кинотеатр</text>
</g>
</g>
</svg>
